/* XPM */
static char *_fe1c7dff9bb460192268e8e6743507eZhAhWawemwzMBZsi[] = {
/* columns rows colors chars-per-pixel */
"72 72 29 1 ",
"  c #479757",
". c #46465E",
"X c #46475E",
"o c #47485E",
"O c #F5BD04",
"+ c #FDBF00",
"@ c #FABF02",
"# c #FDC001",
"$ c #F8BE03",
"% c #FEBF00",
"& c white",
"* c #DA8701",
"= c #D78301",
"- c #FFFFFE",
"; c #D98501",
": c #D98701",
"> c #FFFEFC",
", c #D88301",
"< c #D78401",
"1 c #D88401",
"2 c #FFFCF2",
"3 c #DB8901",
"4 c #FCBE01",
"5 c #DA8801",
"6 c #46495E",
"7 c #D98601",
"8 c #45485E",
"9 c #FFFEFB",
"0 c #FFFDF5",
/* pixels */
"                                                                        ",
"                                                                        ",
"                                                                        ",
"                                                                        ",
"                                                                        ",
"                                                                        ",
"                                                                        ",
"                                                                        ",
"                                                                        ",
"                                                                        ",
"                                                                        ",
"                                                                        ",
"                                                                        ",
"                                                                        ",
"                                                                        ",
"                                                                        ",
"                                                                        ",
"                                                                        ",
"                                                                        ",
"                                                                        ",
"                                ........X                               ",
"                                .........                               ",
"                                ........o                               ",
"                             ...O+@#+$%%%...                            ",
"                             ...%%%%%%%%%...                            ",
"                             ...%%%%%%%%%...                            ",
"                          X..%%%&&&*==%%%%%%...                         ",
"                          ...%%%&&&===%%%%%%...                         ",
"                          ...%%%&&&===%%%%%%...                         ",
"                       X..%%%-&&;==:=====%%%%%+...                      ",
"                       ...%%%&&&=========%%%%%%...                      ",
"                       ...%%%>&&==,==<1==%%%%%%...                      ",
"                    ...%%%2&&%%%===%%%%%%==3%%%4%%...                   ",
"                    ...%%%&&&%%%===%%%%%%===%%%%%%...                   ",
"                    ...%%%&&&%%%==1%%%%%%===%%%%%%...                   ",
"                    ...%%%===========5%%%%%%==*%%%...                   ",
"                    ...%%%============%%%%%%===%%%...                   ",
"                    X.6%%%=====<7=====%%%%%%==1%%%...                   ",
"                    ...%%%%%%%%%===%%%%%%-&-%%%%%%...                   ",
"                    ...%%%%%%%%%===%%%%%%&&&%%%%%%...                   ",
"                    ...%%%%%%%%%7==%%%%%%&&&%%%%%%X..                   ",
"                       ...%%%%%%%%%%%%-&&%%%%%%...                      ",
"                       ...%%%%%%%%%%%%&&&%%%%%%...                      ",
"                       8..%%%%%%%%%%%%9&&%%%%%%...                      ",
"                          ...%%%%%%&&&%%%%%%...                         ",
"                          ...%%%%%%&&&%%%#%%...                         ",
"                          ...%%%%%%0&&%%%%%#...                         ",
"                             ...%%%%%%%%%o..                            ",
"                             ...%%%%%%%%%...                            ",
"                             ...%%%%%%%%%...                            ",
"                                .........                               ",
"                                .........                               ",
"                                .........                               ",
"                                                                        ",
"                                                                        ",
"                                                                        ",
"                                                                        ",
"                                                                        ",
"                                                                        ",
"                                                                        ",
"                                                                        ",
"                                                                        ",
"                                                                        ",
"                                                                        ",
"                                                                        ",
"                                                                        ",
"                                                                        ",
"                                                                        ",
"                                                                        ",
"                                                                        ",
"                                                                        ",
"                                                                        "
};
