/* XPM */
static char *_e40955c96f44b6bf927cc3e8e34f38dZJUkM9ethSKd1EW4[] = {
/* columns rows colors chars-per-pixel */
"72 72 12 1 ",
"  c #479757",
". c #464B5E",
"X c #46465E",
"o c #FFBF00",
"O c #FDBF01",
"+ c white",
"@ c #FEFFFE",
"# c #46465D",
"$ c #FEBF00",
"% c #D78301",
"& c #D68301",
"* c #D48303",
/* pixels */
"                                                                        ",
"                                                                        ",
"                                                                        ",
"                                                                        ",
"                                                                        ",
"                                                                        ",
"                                                                        ",
"                                                                        ",
"                                                                        ",
"                                                                        ",
"                                                                        ",
"                                                                        ",
"                                                                        ",
"                                                                        ",
"                                                                        ",
"                                                                        ",
"                                                                        ",
"                                                                        ",
"                                                                        ",
"                                                                        ",
"                              .XXXXXXXXXXX                              ",
"                              XXXXXXXXXXXX                              ",
"                              XXXXXXXXXXXX                              ",
"                              XXXooooooXXX                              ",
"                              XXXooooooXXX                              ",
"                              XXXooooooXXX                              ",
"                              XXXooooooXXX                              ",
"                              XXXooooooXXX                              ",
"                              XXXoooooOXXX                              ",
"                              XXX+++++@XXX                              ",
"                              XXX++++++#XX                              ",
"                              XXX++++++XXX                              ",
"                              XXX++++++XXX                              ",
"                              XXX++++++XXX                              ",
"                              XXX++++++XXX                              ",
"                              XXX$oooooXXX                              ",
"                              XXXooooooXXX                              ",
"                              XXXooooooXXX                              ",
"                              XXXooooooXXX                              ",
"                              XXXooooooXXX                              ",
"                              XXXooooooXXX                              ",
"                              XXXooooooXXX                              ",
"                              XXXooooooXXX                              ",
"                              XXXooooooXXX                              ",
"                              XXX%%%%%%XXX                              ",
"                              XXX%%%%%%XXX                              ",
"                              XXX%%%%%%XXX                              ",
"                              XXX%%%&%%XXX                              ",
"                              XXX%%%%%%XXX                              ",
"                              XXX&*%%%%XXX                              ",
"                              XXXXXXXXXXXX                              ",
"                              XXXXXXXXXXXX                              ",
"                              XXXXXXXXXXXX                              ",
"                                                                        ",
"                                                                        ",
"                                                                        ",
"                                                                        ",
"                                                                        ",
"                                                                        ",
"                                                                        ",
"                                                                        ",
"                                                                        ",
"                                                                        ",
"                                                                        ",
"                                                                        ",
"                                                                        ",
"                                                                        ",
"                                                                        ",
"                                                                        ",
"                                                                        ",
"                                                                        ",
"                                                                        "
};
