/* XPM */
static char *_8f456f67de04f23c0edf32e214b4264xcepKyQ6Z11ViiUW[] = {
/* columns rows colors chars-per-pixel */
"72 72 21 1 ",
"  c #479757",
". c #46465E",
"X c #45485E",
"o c #46485E",
"O c #FFBF00",
"+ c #FEC000",
"@ c #46475E",
"# c #D78301",
"$ c white",
"% c #FEFFFE",
"& c #FABE02",
"* c #D68302",
"= c #FEBF00",
"- c #FDBF00",
"; c #D48302",
": c #FEC001",
"> c #FDBF01",
", c #F3BD05",
"< c #FDC001",
"1 c #F9BE03",
"2 c #F4BE05",
/* pixels */
"                                                                        ",
"                                                                        ",
"                                                                        ",
"                                                                        ",
"                                                                        ",
"                                                                        ",
"                                                                        ",
"                                                                        ",
"                                                                        ",
"                                                                        ",
"                                                                        ",
"                                                                        ",
"                                                                        ",
"                                                                        ",
"                                                                        ",
"                                                                        ",
"                                                                        ",
"                                                                        ",
"                                                                        ",
"                                                                        ",
"                              ............                              ",
"                              ............                              ",
"                              X..o........                              ",
"                           ...OOOOOO...OO+...                           ",
"                           ...OOOOOO...OOO...                           ",
"                           ...OOOOOO...OOO...                           ",
"                        @..OOO###$$%OOO...OOO@..                        ",
"                        ...OOO###$$$OOO...OOO...                        ",
"                        ...OOO###$$$OOO...OOO...                        ",
"                     ...&OO#########%$$+O+...%$$...                     ",
"                     ...OOO#########$$$OOO...$$$...                     ",
"                     ...OOO#########$$$OOO...$$$...                     ",
"                     ...OOOOOOOO+######OOO...$$$...                     ",
"                     ...OOOOOOOOO######OOO...$$$...                     ",
"                     ...OOOOOOOOO######OOO...$$$...                     ",
"                     ...OOOOOO*##OOO###OOO...==-...                     ",
"                     ...OOOOOO###OOO###OOO...===...                     ",
"                     ...OOOOOO;##OOO###OOO...===...                     ",
"                     ...OOO$$$:O>OOO###OOO...=-=...                     ",
"                     ...OOO$$$OOOOOO###OOO...=-=...                     ",
"                     ...OOO$$$OOOOOO###OOO...===...                     ",
"                     ...OOO+O+$$$OOOOO+OOO...=-=...                     ",
"                     ...OOOOOO$$$OOOOOOOOO...===...                     ",
"                     ...OOOOOO$$$OOOOOO&OO...-==...                     ",
"                        ...OOOOOOOOOOOO...-=-...                        ",
"                        ...OOOOOOOOOOOO...===...                        ",
"                        ...OOOOOOOOOOOO...,==...                        ",
"                           ..@OOOOOO...-=<...                           ",
"                           ...OO<OOO...===...                           ",
"                           ...OO>OO1...2==...                           ",
"                              ............                              ",
"                              ............                              ",
"                              @...........                              ",
"                                                                        ",
"                                                                        ",
"                                                                        ",
"                                                                        ",
"                                                                        ",
"                                                                        ",
"                                                                        ",
"                                                                        ",
"                                                                        ",
"                                                                        ",
"                                                                        ",
"                                                                        ",
"                                                                        ",
"                                                                        ",
"                                                                        ",
"                                                                        ",
"                                                                        ",
"                                                                        ",
"                                                                        "
};
