/* XPM */
static char *d2f64237ace74243a435348b6710f46c8YFNxISdeAcWp25F[] = {
/* columns rows colors chars-per-pixel */
"72 72 13 1 ",
"  c #479757",
". c #46465E",
"X c #46475E",
"o c #FFBF00",
"O c white",
"+ c #FFFDF5",
"@ c #4C4A5B",
"# c #FFFFFE",
"$ c #D98601",
"% c #D78301",
"& c #4E4B5A",
"* c #49485D",
"= c #FFFAE9",
/* pixels */
"                                                                        ",
"                                                                        ",
"                                                                        ",
"                                                                        ",
"                                                                        ",
"                                                                        ",
"                                                                        ",
"                                                                        ",
"                                                                        ",
"                                                                        ",
"                                                                        ",
"                                                                        ",
"                                                                        ",
"                                                                        ",
"                                                                        ",
"                                                                        ",
"                                                                        ",
"                                                                        ",
"                                                                        ",
"                                                                        ",
"                                .........                               ",
"                                .........                               ",
"                                .........                               ",
"                             X..ooo...ooo..X                            ",
"                             ...ooo...ooo...                            ",
"                             ...ooo...ooo...                            ",
"                          ...ooooooOO+@..ooo...                         ",
"                          ...ooooooOOO...ooo...                         ",
"                          ...ooooooOO#...ooo...                         ",
"                          ...ooo$%%ooo...#OO...                         ",
"                          ...ooo%%%ooo...OOO...                         ",
"                          ...ooo%%%ooo...OOO...                         ",
"                          ...ooo%%%ooo...OOO...                         ",
"                          ...ooo%%%ooo...OOO...                         ",
"                          ...ooo%%%ooo...OOO...                         ",
"                          ...ooo%%%ooo...ooo...                         ",
"                          ...ooo%%%ooo...ooo...                         ",
"                          ...ooo%%%ooo...ooo...                         ",
"                          ...ooo%%%ooo...ooo...                         ",
"                          ...ooo%%%ooo...ooo...                         ",
"                          ...ooo%%%ooo...ooo&..                         ",
"                          ...OOOoooooo...ooo*..                         ",
"                          ...OOOoooooo...ooo...                         ",
"                          ...OOOoooooo...ooo...                         ",
"                          ...oooOOOooo...ooo...                         ",
"                          ...oooOOOooo...ooo...                         ",
"                          ...ooo=OOooo...ooo...                         ",
"                             ...ooo@..ooo...                            ",
"                             ...ooo...ooo...                            ",
"                             ...ooo...ooo...                            ",
"                                .........                               ",
"                                .........                               ",
"                                X........                               ",
"                                                                        ",
"                                                                        ",
"                                                                        ",
"                                                                        ",
"                                                                        ",
"                                                                        ",
"                                                                        ",
"                                                                        ",
"                                                                        ",
"                                                                        ",
"                                                                        ",
"                                                                        ",
"                                                                        ",
"                                                                        ",
"                                                                        ",
"                                                                        ",
"                                                                        ",
"                                                                        ",
"                                                                        "
};
