/* XPM */
static char *f8960107b84044509ebe96fcd60a91f1fNo5DzD4tNKweNaZ[] = {
/* columns rows colors chars-per-pixel */
"72 72 13 1 ",
"  c #479757",
". c #46465E",
"X c #46475E",
"o c #FFBF00",
"O c #4C4A5B",
"+ c #FFFDF5",
"@ c white",
"# c #FFFFFE",
"$ c #D78301",
"% c #D98601",
"& c #4E4B5A",
"* c #49485D",
"= c #FFFAE9",
/* pixels */
"                                                                        ",
"                                                                        ",
"                                                                        ",
"                                                                        ",
"                                                                        ",
"                                                                        ",
"                                                                        ",
"                                                                        ",
"                                                                        ",
"                                                                        ",
"                                                                        ",
"                                                                        ",
"                                                                        ",
"                                                                        ",
"                                                                        ",
"                                                                        ",
"                                                                        ",
"                                                                        ",
"                                                                        ",
"                                                                        ",
"                               .........                                ",
"                               .........                                ",
"                               .........                                ",
"                            X..ooo...ooo..X                             ",
"                            ...ooo...ooo...                             ",
"                            ...ooo...ooo...                             ",
"                         ...ooo..O+@@oooooo...                          ",
"                         ...ooo...@@@oooooo...                          ",
"                         ...ooo...#@@oooooo...                          ",
"                         ...@@#...ooo$$%ooo...                          ",
"                         ...@@@...ooo$$$ooo...                          ",
"                         ...@@@...ooo$$$ooo...                          ",
"                         ...@@@...ooo$$$ooo...                          ",
"                         ...@@@...ooo$$$ooo...                          ",
"                         ...@@@...ooo$$$ooo...                          ",
"                         ...ooo...ooo$$$ooo...                          ",
"                         ...ooo...ooo$$$ooo...                          ",
"                         ...ooo...ooo$$$ooo...                          ",
"                         ...ooo...ooo$$$ooo...                          ",
"                         ...ooo...ooo$$$ooo...                          ",
"                         ..&ooo...ooo$$$ooo...                          ",
"                         ..*ooo...oooooo@@@...                          ",
"                         ...ooo...oooooo@@@...                          ",
"                         ...ooo...oooooo@@@...                          ",
"                         ...ooo...ooo@@@ooo...                          ",
"                         ...ooo...ooo@@@ooo...                          ",
"                         ...ooo...ooo@@=ooo...                          ",
"                            ...ooo..Oooo...                             ",
"                            ...ooo...ooo...                             ",
"                            ...ooo...ooo...                             ",
"                               .........                                ",
"                               .........                                ",
"                               ........X                                ",
"                                                                        ",
"                                                                        ",
"                                                                        ",
"                                                                        ",
"                                                                        ",
"                                                                        ",
"                                                                        ",
"                                                                        ",
"                                                                        ",
"                                                                        ",
"                                                                        ",
"                                                                        ",
"                                                                        ",
"                                                                        ",
"                                                                        ",
"                                                                        ",
"                                                                        ",
"                                                                        ",
"                                                                        "
};
