/* XPM */
static char *rcp16560293292398[] = {
/* columns rows colors chars-per-pixel */
"72 72 16 1 ",
"  c #34555D",
". c #396659",
"X c #6B5052",
"o c #9A5649",
"O c #A85F46",
"+ c #B5754D",
"@ c #64B63B",
"# c #37854E",
"$ c #479757",
"% c #B8D040",
"& c #2A709B",
"* c #2987A6",
"= c #3690AE",
"- c #369AB0",
"; c #3CA3B2",
": c #ACE89B",
/* pixels */
"$$$$$$$$$$$$$$$$$$$$$$$$$$$$$$$$$$$$$$$$$$$$$$$$$$$$$$$$$$$$$$$$$$$$$$$$",
"$$$$$$$$$$$$$$$$$$$$$$$$$$$$$$$$$$$$$$$$$$$$$$$$$$$$$$$$$$$$$$$$$$$$$$$$",
"$$$$$$$$$$$$$$$$$$$$$$$$$$$$$$$$$$$$$$$$$$$$$$$$$$$$$$$$$$$$$$$$$$$$$$$$",
"$$$$$$$$$$$$$$$$$$$$$$$$$$$$$$$$$$$$$$$$$$$$$$$$$$$$$$$$$$$$$$$$$$$$$$$$",
"$$$$$$$$$$$$$$$$$$$$$$$$$$$$$$$$$$$$$$$$$$$$$$$$$$$$$$$$$$$$$$$$$$$$$$$$",
"$$$$$$$$$$$$$$$$$$$$$$$$$$$$$$$$$$$$$$$$$$$$$$$$$$$$$$$$$$$$$$$$$$$$$$$$",
"$$$$$$$$$$$$$$$$$$$$$$$$$$$$$$$$$$$$$$$$$$$$$$$$$$$$$$$$$$$$$$$$$$$$$$$$",
"$$$$$$$$$$$$$$$$$$$$$$$$$$$$$$$$$$$$$$$$$$$$$$$$$$$$$$$$$$$$$$$$$$$$$$$$",
"$$$$$$$$$$$$$$$$$$$$$$$$$$$$$$$$$$$$$$$$$$$$$$$$$$$$$$$$$$$$$$$$$$$$$$$$",
"$$$$$$$$$$$$$$$$$$$$$$$$$$$$$$$$$$$$$$$$$$$$$$$$$$$$$$$$$$$$$$$$$$$$$$$$",
"$$$$$$$$$$$$$$$$$$$$$$$$$$$$$$$$$$$$$$$$$$$$$$$$$$$$$$$$$$$$$$$$$$$$$$$$",
"$$$$$$$$$$$$$$$$$$$$$$$$$$$$$$$$$$$$$$$$$$$$$$$$$$$$$$$$$$$$$$$$$$$$$$$$",
"$$$$$$###$$$$$$$$$$$$$$$$$$$$$$$$$$$$$$$$$$$$$$$$$$$$$###$$$$$$$$$$$$$$$",
"$$$$$$###$$$$$$$$$$$$$$$$$$$$$$$$$$$$$$$$$$$$$$$$$$$$$###$$$$$$$$$$$$$$$",
"$$$$$$###$$$$$$$$$$$$$$$$$$$$$$$$$$$$$$$$$$$$$$$$$$$$$###$$$$$$$$$$$$$$$",
"$$$$$$...$$$$$$$$$$$$$$$...$$$$$$$$$$$$$$$$$$$$$$$$$$$...$$$$$$$$$$$$$$$",
"$$$$$$...$$$$$$$$$$$$$$$...$$$$$$$$$$$$$$$$$$$$$$$$$$$...$$$$$$$$$$$$$$$",
"$$$$$$...$$$$$$$$$$$$$$$...$$$$$$$$$$$$$$$$$$$$$$$$$$$...$$$$$$$$$$$$$$$",
"###$$$...   ###$$$$$$###   $$$$$$###$$$$$$###$$$###$$$...   ###$$$$$$###",
"###$$$...   ###$$$$$$###   $$$$$$###$$$$$$###$$$###$$$...   ###$$$$$$###",
"###$$$...   ###$$$$$$###   $$$$$$###$$$$$$###$$$###$$$...   ###$$$$$$###",
"...###         ###$$$      ###$$$...$$$$$$...   ...###         ###$$$   ",
"...###         ###$$$      ###$$$...$$$$$$...   ...###         ###$$$   ",
"...###         ###$$$      ###$$$...$$$$$$...   ...###         ###$$$   ",
"   ...XXXXXX...      XXX...      XXX      XXXXXX   ...XXXXXX...      XXX",
"   ...XXXXXX...      XXX...      XXX      XXXXXX   ...XXXXXX...      XXX",
"   ...XXXXXX...      XXX...      XXX      XXXXXX   ...XXXXXX...      XXX",
"OOOOOOOOOoooXXXXXXoooOOOoooXXXXXXXXXooooooooooooOOOOOOOOOoooXXXXXXoooOOO",
"OOOOOOOOOoooXXXXXXoooOOOoooXXXXXXXXXooooooooooooOOOOOOOOOooo%%%%%%%%%OOO",
"OOOOOOOOOoooXXXXXXoooOOOoooXXXXXXXXXooooooooooooOOOOOOOOOooo%%%%%%%%%OOO",
"OOO+++++++++OOOOOO+++++++++++++++OOOOOOOOOooooooOOO+++++++++%%%%%%%%%+++",
"OOO+++++++++OOOOOO+++++++++++++++OOOOOOOOOooooooOOO+++++++++OOOOOO%%%+++",
"OOO+++++++++OOOOOO+++++++++++++++OOOOOOOOOooooooOOO+++++++++OOOOOO%%%+++",
"oooOOO+++OOOOOOOOOOOOOOOOOO++++++OOOOOOOOOoooooooooOOO+++OOOOOOOOO%%%OOO",
"oooOOO+++OOOOOOOOOOOOOOOOOO++++++OOOOOOOOOoooooooooOOO+++OOOOOO:::OOOOOO",
"oooOOO+++OOOOOOOOOOOOOOOOOO++++++OOOOOOOOOoooooooooOOO+++OOOOOO:::OOOOOO",
"&&&===ooooooooo===&&&&&&===OOOooooooOOO===&&&&&&&&&===ooooooooo:::&&&&&&",
"&&&===ooooooooo===&&&&&&===OOOooooooOOO===&&&&&&&&&===oooooo%%%===&&&&&&",
"&&&===ooooooooo===&&&&&&===OOOooooooOOO===&&&&&&&&&===oooooo%%%===&&&&&&",
"===***************======***&&&&&&&&&******=========*********%%%***======",
"===***************======***&&&&&&&&&******=========*********@@@***======",
"===***************======***&&&&&&&&&******=========*********@@@***======",
"============================================================@@@=========",
"========================================================================",
"========================================================================",
"------------------------------------------------------------------------",
"------------------------------------------------------------------------",
"------------------------------------------------------------------------",
";;;;;;;;;;;;;;;;;;;;;;;;;;;;;;;;;;;;;;;;;;;;;;;;;;;;;;;;;;;;;;;;;;;;;;;;",
";;;;;;;;;;;;;;;;;;;;;;;;;;;;;;;;;;;;;;;;;;;;;;;;;;;;;;;;;;;;;;;;;;;;;;;;",
";;;;;;;;;;;;;;;;;;;;;;;;;;;;;;;;;;;;;;;;;;;;;;;;;;;;;;;;;;;;;;;;;;;;;;;;",
";;;;;;;;;;;;;;;;;;;;;;;;;;;;;;;;;;;;;;;;;;;;;;;;;;;;;;;;;;;;;;;;;;;;;;;;",
";;;;;;;;;;;;;;;;;;;;;;;;;;;;;;;;;;;;;;;;;;;;;;;;;;;;;;;;;;;;;;;;;;;;;;;;",
";;;;;;;;;;;;;;;;;;;;;;;;;;;;;;;;;;;;;;;;;;;;;;;;;;;;;;;;;;;;;;;;;;;;;;;;",
";;;;;;;;;;;;;;;;;;;;;;;;;;;;;;;;;;;;;;;;;;;;;;;;;;;;;;;;;;;;;;;;;;;;;;;;",
";;;;;;;;;;;;;;;;;;;;;;;;;;;;;;;;;;;;;;;;;;;;;;;;;;;;;;;;;;;;;;;;;;;;;;;;",
";;;;;;;;;;;;;;;;;;;;;;;;;;;;;;;;;;;;;;;;;;;;;;;;;;;;;;;;;;;;;;;;;;;;;;;;",
";;;;;;;;;;;;;;;;;;;;;;;;;;;;;;;;;;;;;;;;;;;;;;;;;;;;;;;;;;;;;;;;;;;;;;;;",
";;;;;;;;;;;;;;;;;;;;;;;;;;;;;;;;;;;;;;;;;;;;;;;;;;;;;;;;;;;;;;;;;;;;;;;;",
";;;;;;;;;;;;;;;;;;;;;;;;;;;;;;;;;;;;;;;;;;;;;;;;;;;;;;;;;;;;;;;;;;;;;;;;",
";;;;;;;;;;;;;;;;;;;;;;;;;;;;;;;;;;;;;;;;;;;;;;;;;;;;;;;;;;;;;;;;;;;;;;;;",
";;;;;;;;;;;;;;;;;;;;;;;;;;;;;;;;;;;;;;;;;;;;;;;;;;;;;;;;;;;;;;;;;;;;;;;;",
";;;;;;;;;;;;;;;;;;;;;;;;;;;;;;;;;;;;;;;;;;;;;;;;;;;;;;;;;;;;;;;;;;;;;;;;",
";;;;;;;;;;;;;;;;;;;;;;;;;;;;;;;;;;;;;;;;;;;;;;;;;;;;;;;;;;;;;;;;;;;;;;;;",
";;;;;;;;;;;;;;;;;;;;;;;;;;;;;;;;;;;;;;;;;;;;;;;;;;;;;;;;;;;;;;;;;;;;;;;;",
";;;;;;;;;;;;;;;;;;;;;;;;;;;;;;;;;;;;;;;;;;;;;;;;;;;;;;;;;;;;;;;;;;;;;;;;",
";;;;;;;;;;;;;;;;;;;;;;;;;;;;;;;;;;;;;;;;;;;;;;;;;;;;;;;;;;;;;;;;;;;;;;;;",
";;;;;;;;;;;;;;;;;;;;;;;;;;;;;;;;;;;;;;;;;;;;;;;;;;;;;;;;;;;;;;;;;;;;;;;;",
";;;;;;;;;;;;;;;;;;;;;;;;;;;;;;;;;;;;;;;;;;;;;;;;;;;;;;;;;;;;;;;;;;;;;;;;",
";;;;;;;;;;;;;;;;;;;;;;;;;;;;;;;;;;;;;;;;;;;;;;;;;;;;;;;;;;;;;;;;;;;;;;;;",
";;;;;;;;;;;;;;;;;;;;;;;;;;;;;;;;;;;;;;;;;;;;;;;;;;;;;;;;;;;;;;;;;;;;;;;;",
";;;;;;;;;;;;;;;;;;;;;;;;;;;;;;;;;;;;;;;;;;;;;;;;;;;;;;;;;;;;;;;;;;;;;;;;"
};
