/* XPM */
static char *rcp06495087079587[] = {
/* columns rows colors chars-per-pixel */
"72 72 73 1 ",
"  c #479757",
". c #3A3A50",
"X c #3A3B50",
"o c #F2E1AF",
"O c #FFE7B6",
"+ c #FEE7B6",
"@ c #3A3C50",
"# c #46465E",
"$ c #F4B251",
"% c #F0B151",
"& c #D98E05",
"* c #E28D00",
"= c #DB8D04",
"- c #DD8D03",
"; c #E18E00",
": c #FCE6B5",
"> c #DF8C01",
", c #E18D01",
"< c #DC8A03",
"1 c #E18D00",
"2 c #46475D",
"3 c #E18C00",
"4 c #DF8C02",
"5 c #E08D01",
"6 c #D98E04",
"7 c #D68E07",
"8 c #464C5D",
"9 c #DA8904",
"0 c #46475E",
"q c #FCDFA5",
"w c #D68D06",
"e c #FFE7B5",
"r c #FDE0A8",
"t c #FFE6B5",
"y c #FEE4B1",
"u c #E28E02",
"i c #F3B251",
"p c #F3B151",
"a c #EBB151",
"s c #DEAF52",
"d c #E38F06",
"f c #F3E1B0",
"g c #EEB151",
"h c #46485E",
"j c #45485E",
"k c #F1B251",
"l c #FEE7B7",
"z c #EFE0AE",
"x c #FEE6B5",
"c c #F2B251",
"v c #E8B051",
"b c #F6E3B1",
"n c #FC6653",
"m c #E9DEAB",
"M c #EFB151",
"N c #E4B052",
"B c #F96753",
"V c #F56853",
"C c #E38F04",
"Z c #DE9007",
"A c #FEE3AF",
"S c #D48E08",
"D c #E28D01",
"F c #FFE6B4",
"G c #47485E",
"H c #E28F05",
"J c #46465D",
"K c #D38E09",
"L c #FDE1AA",
"P c #E29004",
"I c #46465F",
"U c #478F58",
"Y c #479258",
/* pixels */
"                                                                        ",
"                                                                        ",
"                                                                        ",
"                                  ...                                   ",
"                                  ...                                   ",
"                                  X..                                   ",
"                               ...oO+..@                                ",
"                               ...OOO...                                ",
"                               ..XOOO...                                ",
"                         ###...$$%OOO$$$...###                          ",
"                         ###...$$$OOO$$$...###                          ",
"                         ###...$$$OOO$$$...###                          ",
"                      ###&**###OOOOOOOOO###=*-###                       ",
"                      ###***###OOOOOOOOO###***###                       ",
"                      ###*;*###OOOOO:OOO###**>###                       ",
"                      ###**,<*1########21*,***###                       ",
"                      ###******#########******###                       ",
"                      ###******#########3*4***###                       ",
"                   ###1**5****6**************&**7##8                    ",
"                   ###***************************###                    ",
"                   ###***,******1******9*********###                    ",
"                   ##0,**;**OOqw****1&*1eOr**,**1###                    ",
"                   ###******OOO*********OOO******###                    ",
"                   ###,**1*7OOt**,**=***Oty******###                    ",
"                ##0**u$$ii$i...p$$***a$s...$$$$$$***###                 ",
"                ###***$$$$$$...$$$***$$$...$$$$$$***###                 ",
"                ###**d$$i$$$...$$$***$$$...$$$$$$***###                 ",
"                ###$$$OO+$$$...$i$**,$$$..@$$$OOf$$$###                 ",
"                ###$$$OOO$$$...$i$***$$$...$$$OOO$$$###                 ",
"                ###$$$OOO$$$...$$$***g$a...$$$OOO$$$###                 ",
"                ###$$$OOO$$$$$$$$$$$$$$$$$$$$$OOO$$$##h                 ",
"                ###$$$OOO$$$$$$$$$$$$$$$$$$$$$OOO$$$###                 ",
"                ##j$$$OOOk$$$$$$$$$$$$$$$$$$$$OOO$i$#h0                 ",
"                h##OOlOOOOOz$$$$$.....$$$$$+OO:OOOOx###                 ",
"                ###OOOOOOOOO$$$$$.....$$$$$OOOOOOOOO###                 ",
"                ###OOOOOOOOO$$$$cX....v$$$$OOOOOOOOO##0                 ",
"                   ###OOOOOO$$$#########$$$+OO:OO###                    ",
"                   ###OOOOOO$$$#########$$$OOOOOO###                    ",
"                   ###OOOOOO$$$#########$$$bOOxOO###                    ",
"                   ###0##OOO$$$$innnnn$$$$$OOO######                    ",
"                   ######OOO$$$$$nnnnn$$$$$OOO######                    ",
"                   ######mOOMN$$$BnnVn%$i$$OOOh#####                    ",
"                   ###CCZ#####2OOOOOOAOO######SDD###                    ",
"                   ###CCC######OOOOOOOOO######DDD###                    ",
"                   ###CCC######OOFyOOtOO#####GDDD###                    ",
"                   ###CCCCCCCCH#########,D,D,DDDD###                    ",
"                   ###CCCCCCCCC#########DDDDDDDDD###                    ",
"                   ###CCCCCCCCC##0######DDDDDDDDD###                    ",
"                   ###CCCCCCCCC$$$$$$$$$DDDDDDDDD###                    ",
"                   ###CCCCCCCCC$$$$$$$$$DDDDDDDDD###                    ",
"                   ###CCCCCCCCC$$$$$$$$$DDDDDDDDD###                    ",
"                   ###CCCCCCCCC#####0###DDDDDDDDD###                    ",
"                   ###CCCCCCCCC#########DDDDDDDDD###                    ",
"                   ###CCCCCCCCC###J#####KDDDDDDDD###                    ",
"                   ##hCCCCCC###         ###DDDDDD###                    ",
"                   ###CCCCCC###         ###DDDDDD###                    ",
"                   ###CCCCCC###         ###DDDDDD###                    ",
"                   ###CCCCCC##J         ###OOOOOL###                    ",
"                   ###CCCCCC###         ###OOOOOO###                    ",
"                   ###PCCCCC###         ###OOOOOtI##                    ",
"                   ###OOOOOO###         U  ######Y                      ",
"                   ###OOOOOO###            ######                       ",
"                   ###OOOOOx###            ######                       ",
"                      ######                                            ",
"                      ######                                            ",
"                      #####J                                            ",
"                                                                        ",
"                                                                        ",
"                                                                        ",
"                                                                        ",
"                                                                        ",
"                                                                        "
};
