/* XPM */
static char *rcp06494169258276[] = {
/* columns rows colors chars-per-pixel */
"72 72 73 1 ",
"  c #479757",
". c #3A3A50",
"X c #3A3B50",
"o c #3A3C50",
"O c #FEE7B6",
"+ c #FFE7B6",
"@ c #F2E1AF",
"# c #46465E",
"$ c #F4B251",
"% c #F0B151",
"& c #DD8D03",
"* c #E28D00",
"= c #DB8D04",
"- c #D98E05",
"; c #DF8C01",
": c #FCE6B5",
"> c #E18E00",
", c #E18D01",
"< c #E18D00",
"1 c #46475D",
"2 c #DC8A03",
"3 c #DF8C02",
"4 c #E18C00",
"5 c #464C5D",
"6 c #D68E07",
"7 c #D98E04",
"8 c #E08D01",
"9 c #DA8904",
"0 c #FDE0A8",
"q c #FFE7B5",
"w c #D68D06",
"e c #FCDFA5",
"r c #46475E",
"t c #FEE4B1",
"y c #FFE6B5",
"u c #DEAF52",
"i c #EBB151",
"p c #F3B151",
"a c #F3B251",
"s c #E28E02",
"d c #E38F06",
"f c #F3E1B0",
"g c #EEB151",
"h c #46485E",
"j c #F1B251",
"k c #45485E",
"l c #FEE6B5",
"z c #EFE0AE",
"x c #FEE7B7",
"c c #E8B051",
"v c #F2B251",
"b c #F6E3B1",
"n c #FC6653",
"m c #F56853",
"M c #F96753",
"N c #E4B052",
"B c #EFB151",
"V c #E9DEAB",
"C c #E28D01",
"Z c #D48E08",
"A c #FEE3AF",
"S c #DE9007",
"D c #E38F04",
"F c #47485E",
"G c #FFE6B4",
"H c #E28F05",
"J c #D38E09",
"K c #46465D",
"L c #FDE1AA",
"P c #46465F",
"I c #E29004",
"U c #479258",
"Y c #478F58",
/* pixels */
"                                                                        ",
"                                                                        ",
"                                                                        ",
"                                  ...                                   ",
"                                  ...                                   ",
"                                  ..X                                   ",
"                               o..O+@...                                ",
"                               ...+++...                                ",
"                               ...+++X..                                ",
"                         ###...$$$+++%$$...###                          ",
"                         ###...$$$+++$$$...###                          ",
"                         ###...$$$+++$$$...###                          ",
"                      ###&*=###+++++++++###**-###                       ",
"                      ###***###+++++++++###***###                       ",
"                      ###;**###+++:+++++###*>*###                       ",
"                      ###***,*<1########<*2,**###                       ",
"                      ###******#########******###                       ",
"                      ###***3*4#########******###                       ",
"                   5##6**-**************7****8**<###                    ",
"                   ###***************************###                    ",
"                   ###*********9******<******,***###                    ",
"                   ###<**,**0+q<*-<****we++**>**,r##                    ",
"                   ###******+++*********+++******###                    ",
"                   ###******ty+***=**,**y++6*<**,###                    ",
"                ###***$$$$$$...u$i***$$p...a$aa$$s**r##                 ",
"                ###***$$$$$$...$$$***$$$...$$$$$$***###                 ",
"                ###***$$$$$$...$$$***$$$...$$$a$$d**###                 ",
"                ###$$$f++$$$o..$$$,**$a$...$$$O++$$$###                 ",
"                ###$$$+++$$$...$$$***$a$...$$$+++$$$###                 ",
"                ###$$$+++$$$...i$g***$$$...$$$+++$$$###                 ",
"                h##$$$+++$$$$$$$$$$$$$$$$$$$$$+++$$$###                 ",
"                ###$$$+++$$$$$$$$$$$$$$$$$$$$$+++$$$###                 ",
"                rh#$a$+++$$$$$$$$$$$$$$$$$$$$j+++$$$k##                 ",
"                ###l++++:++O$$$$$.....$$$$$z+++++x++##h                 ",
"                ###+++++++++$$$$$.....$$$$$+++++++++###                 ",
"                r##+++++++++$$$$c....Xv$$$$+++++++++###                 ",
"                   ###++:++O$$$#########$$$++++++###                    ",
"                   ###++++++$$$#########$$$++++++###                    ",
"                   ###++l++b$$$#########$$$++++++###                    ",
"                   ######+++$$$$$nnnnna$$$$+++##r###                    ",
"                   ######+++$$$$$nnnnn$$$$$+++######                    ",
"                   #####h+++$$a$%nmnnM$$$NB++V######                    ",
"                   ###CCZ######++A++++++1#####SDD###                    ",
"                   ###CCC######+++++++++######DDD###                    ",
"                   ###CCCF#####++y++tG++######DDD###                    ",
"                   ###CCCC,C,C,#########HDDDDDDDD###                    ",
"                   ###CCCCCCCCC#########DDDDDDDDD###                    ",
"                   ###CCCCCCCCC######r##DDDDDDDDD###                    ",
"                   ###CCCCCCCCC$$$$$$$$$DDDDDDDDD###                    ",
"                   ###CCCCCCCCC$$$$$$$$$DDDDDDDDD###                    ",
"                   ###CCCCCCCCC$$$$$$$$$DDDDDDDDD###                    ",
"                   ###CCCCCCCCC###r#####DDDDDDDDD###                    ",
"                   ###CCCCCCCCC#########DDDDDDDDD###                    ",
"                   ###CCCCCCCCJ#####K###DDDDDDDDD###                    ",
"                   ###CCCCCC###         ###DDDDDDh##                    ",
"                   ###CCCCCC###         ###DDDDDD###                    ",
"                   ###CCCCCC###         ###DDDDDD###                    ",
"                   ###L+++++###         K##DDDDDD###                    ",
"                   ###++++++###         ###DDDDDD###                    ",
"                   ##Py+++++###         ###DDDDDI###                    ",
"                     U######  Y         ###++++++###                    ",
"                      ######            ###++++++###                    ",
"                      ######            ###l+++++###                    ",
"                                           ######                       ",
"                                           ######                       ",
"                                           K#####                       ",
"                                                                        ",
"                                                                        ",
"                                                                        ",
"                                                                        ",
"                                                                        ",
"                                                                        "
};
