/* XPM */
static char *rcp06322486961598[] = {
/* columns rows colors chars-per-pixel */
"72 72 74 1 ",
"  c #479757",
". c #46465E",
"X c #479657",
"o c #479658",
"O c #479457",
"+ c #9BC246",
"@ c #99C147",
"# c #46475E",
"$ c #98C147",
"% c #95C048",
"& c #74B453",
"* c #63A650",
"= c #73B453",
"- c #64A750",
"; c #72B254",
": c #579B61",
"> c #549862",
", c #559961",
"< c #549962",
"1 c #559962",
"2 c #569A61",
"3 c white",
"4 c #3A3A50",
"5 c #70B155",
"6 c #FFFFFE",
"7 c #FBFFFA",
"8 c #62A551",
"9 c #FDFFFC",
"0 c #F8FFF5",
"q c #3B3B51",
"w c #3C3C52",
"e c #FEFFFE",
"r c #46465D",
"t c #589B60",
"y c #73B354",
"u c #72B053",
"i c #73B452",
"p c #964206",
"a c #954307",
"s c #73B353",
"d c #602A07",
"f c #974206",
"g c #602B08",
"h c #5F2A07",
"j c #73B253",
"k c #65A750",
"l c #467FD8",
"z c #4280DD",
"x c #447FDA",
"c c #477FD6",
"v c #4A95E2",
"b c #5593D6",
"n c #487ED5",
"m c #4381DD",
"M c #457FD9",
"N c #6091CA",
"B c #4A94E1",
"V c #4C95E0",
"C c #529760",
"Z c #4380DC",
"A c #4B96E2",
"S c #4B95E2",
"D c #4B95E1",
"F c #4A95E1",
"G c #4280DC",
"H c #B35E40",
"J c #B35E41",
"K c #B25E41",
"L c #AB614C",
"P c #B25E42",
"I c #C37C5D",
"U c #C47C5C",
"Y c #C27D5E",
"T c #5C4A44",
/* pixels */
"                                                                        ",
"                                                                        ",
"                                                                        ",
"                        .........      .........X                       ",
"                        ......... o    .........                        ",
"                       O.........      ......... X                      ",
"                    X...++++++++@#.....++++++++@...                     ",
"                     ...+++++++++......+++++++++...                     ",
"                     ...++$%+$++$......+++++++++...                     ",
"                  #..+++&&&&&&&&&***+++&&&&&&&&&&&=..#                  ",
"                  ...+++&&&&&&&&&***+++&&&&&&&&&&&&...                  ",
"                  #..++$&&&&&&&&&**-@+$&&&&&&&&&&&&...                  ",
"               ...&&;:>,,>>>>>&&&&&&&&&&&&>>>>>>>>>&&&..#               ",
"               ...&&&>>>>>>>>>&&&&&&&&&&&&>>>>>>><>&&&...               ",
"               ...&&&>1>>>>>>>&&&&&&&&&&&&>>>>>>>2>&&&...               ",
"               ...>>>&&&&&&&&&1>>&&&&&&>>>&&&&&&&&&>>:...               ",
"               ...>>>&&&&&&&&&>>>&&&&&&>>>&&&&&&&&&>>>...               ",
"               ...>,>&&&&&&&&&>>,&&&&&&>>>&&&&&&&&&>>>...               ",
"               ...&&&333444444333&&&&&&3334444443335&&...               ",
"               ...&&&336444444333&&&&&&333444444333&&&...               ",
"               ...&&&333444444333&&&&&&333444444333&&&...               ",
"               ...***333444333337&&&=&&333444333333**8...               ",
"               ...***333444333333&&&&&&333444333333***...               ",
"               ...***333444333390&&&&&&333qw433333e8**...               ",
"            ..r&&&&&&&&&&&&&&&t>>y&&&&&>>>&&&&&&&&&&&&&&u...            ",
"            ...&&&&&&&&&&&&&&&>>>&&&&&&>>>&&&&=&i&&=&&&&&...            ",
"            ...&&&&&&&&&&&&&&&>>>&=====>>>&&&&&&&&&&&=&&&...            ",
"            ...&&&pppppa&&&***&&&&&&&&&&&&***&&spppppp&&&...            ",
"            ...&&&pppppp&=&***&&&&&&&&&&&&***&&&pppppp&&&...            ",
"            ...&&&pppppp&&&***&&&&&&&&&&&&***&&&pppppp&&&...            ",
"            ...&&&pppdddppppppppppppppppppppppppdddppp&&&...            ",
"            ...&&&pppdddppppppppppppppppppppppppdddppp&&&...            ",
"            ...&&&pppdddppppppppppppppppppppppppdddppp&&&...            ",
"            ...&&&&&&fppddddddddddddddddddddddddppp&&&&&&...            ",
"            ...&&&&&&pppdddghdddddddddddddddddddppp&&&&&&...            ",
"            ...&&&&&&pppgdddddddddddddddddddddddppp&&j&&&...            ",
"               ...***&&&pppppppppppppppppppppppp&&&-**...               ",
"               ...***&&&pppppppppppppppppppppppp&&&***...               ",
"               ...***&&&pppppppppppppppppppppppp&&&***...               ",
"                  ...***s&&&&&&&&&&&&s&&&&&&&&&&**k...                  ",
"                  ...***&&&&&&&&&&&&&&&&&&&&&&&&***...                  ",
"                  ...-**&&&&&&&&&&&&&&&&&&&&&&&s***...                  ",
"               444lzz..............................zzx444               ",
"               444zzz..............................zzz444               ",
"               444zzz..............................zzz444               ",
"               444zzzzzzzzzzzzzzzzzzzzzzzzzzzzzcvvbvvv444               ",
"               444zzzzzzzzzzzzzzzzzzzzzzzzzzzzzzvvvvvv444               ",
"               444nzzzzzzzzzzzzzzzzzzzzzmzzzzzzMvvvvvv444               ",
"            ...&&&&&&zzzNvvvvvvvvvvvvvvvvvvvB&&&&&&vvv444               ",
"            ...&&&&&&zzzvvvvvvvvvvvvvvvvvvvvv&&&&&&vvv444               ",
"            ...&&&&&&zzzvvvvvvvvvvvvvvvvvvvvv&&&&&&vvV444               ",
"            ...&&&CCC444vvvvvvvvvvvvvvvvvvvvvCCC&&&zzZ...               ",
"            ...&&&CCC444vvvvvvAvSDDDDFvvvvvvvCCC&&&zzz...               ",
"            ...&&&CCC444vvvvvvvvvvvvvvvvvvvvvCCC&&&zzZ...               ",
"               ...444444zzzGGzzzzmzzzzzzzzzzzzzz......                  ",
"               ...444444zzzzzzzzzzzzzzzzzzzzzzzz......                  ",
"               ...444444zzzzzzzzzzzzzzzzzzzzzzzG......                  ",
"                     444HHHHHHHHHJJJKHKKLHHHHHHP444                     ",
"                     444PHHHHHHHHHHHHHHHHHHHHHHH444                     ",
"                     444HHHHKHHHHHHHHHHHHHHHHHHH444                     ",
"                     444IUUUUY.........444TTTTTT444                     ",
"                     444UUUUUU.........444TTTTTT444                     ",
"                     444IUUUUI.........444TTTTTT444                     ",
"                     444TTTTTT444         444444                        ",
"                     444TTTTTT444         444444                        ",
"                     444TTTTTT444         444444                        ",
"                        444444                                          ",
"                        444444                                          ",
"                        444444                                          ",
"                                                                        ",
"                                                                        ",
"                                                                        "
};
