/* XPM */
static char *rcp06323972839370[] = {
/* columns rows colors chars-per-pixel */
"72 72 74 1 ",
"  c #479757",
". c #479657",
"X c #46465E",
"o c #479658",
"O c #479457",
"+ c #9BC246",
"@ c #99C147",
"# c #46475E",
"$ c #98C147",
"% c #95C048",
"& c #74B453",
"* c #63A650",
"= c #73B453",
"- c #64A750",
"; c #72B254",
": c #579B61",
"> c #549862",
", c #559961",
"< c #549962",
"1 c #559962",
"2 c #569A61",
"3 c white",
"4 c #3A3A50",
"5 c #70B155",
"6 c #FFFFFE",
"7 c #FBFFFA",
"8 c #62A551",
"9 c #FDFFFC",
"0 c #F8FFF5",
"q c #3B3B51",
"w c #3C3C52",
"e c #FEFFFE",
"r c #46465D",
"t c #589B60",
"y c #73B354",
"u c #72B053",
"i c #73B452",
"p c #964206",
"a c #954307",
"s c #73B353",
"d c #602A07",
"f c #974206",
"g c #602B08",
"h c #5F2A07",
"j c #73B253",
"k c #65A750",
"l c #4280DC",
"z c #4280DD",
"x c #4A7ED2",
"c c #4D94DF",
"v c #4C95E0",
"b c #4A95E2",
"n c #4B95E1",
"m c #4D7DCD",
"M c #4380DC",
"N c #4A95E1",
"B c #4A93DF",
"V c #4E94DE",
"C c #529760",
"Z c #5593D6",
"A c #4A94E1",
"S c #5294DA",
"D c #4F7CCB",
"F c #4B7DD1",
"G c #497ED3",
"H c #447FDA",
"J c #B25E42",
"K c #B35E40",
"L c #B25E41",
"P c #AC604A",
"I c #5C4A44",
"U c #C37C5D",
"Y c #C47C5C",
"T c #C17D60",
/* pixels */
"                                .                                       ",
"                                                                        ",
"                        .                                               ",
"                        XXXXXXXXX      XXXXXXXXX.                       ",
"                        XXXXXXXXX o    XXXXXXXXX                        ",
"                       OXXXXXXXXX      XXXXXXXXX .                      ",
"                    .XXX++++++++@#XXXXX++++++++@XXX                     ",
"                     XXX+++++++++XXXXXX+++++++++XXX                     ",
"                     XXX++$%+$++$XXXXXX+++++++++XXX                     ",
"                  #XX+++&&&&&&&&&***+++&&&&&&&&&&&=XX#                  ",
"                  XXX+++&&&&&&&&&***+++&&&&&&&&&&&&XXX                  ",
"                  #XX++$&&&&&&&&&**-@+$&&&&&&&&&&&&XXX                  ",
"               XXX&&;:>,,>>>>>&&&&&&&&&&&&>>>>>>>>>&&&XX#               ",
"               XXX&&&>>>>>>>>>&&&&&&&&&&&&>>>>>>><>&&&XXX               ",
"               XXX&&&>1>>>>>>>&&&&&&&&&&&&>>>>>>>2>&&&XXX               ",
"               XXX>>>&&&&&&&&&1>>&&&&&&>>>&&&&&&&&&>>:XXX               ",
"               XXX>>>&&&&&&&&&>>>&&&&&&>>>&&&&&&&&&>>>XXX               ",
"               XXX>,>&&&&&&&&&>>,&&&&&&>>>&&&&&&&&&>>>XXX               ",
"               XXX&&&333444444333&&&&&&3334444443335&&XXX               ",
"               XXX&&&336444444333&&&&&&333444444333&&&XXX               ",
"               XXX&&&333444444333&&&&&&333444444333&&&XXX               ",
"               XXX***333444333337&&&=&&333444333333**8XXX               ",
"               XXX***333444333333&&&&&&333444333333***XXX               ",
"               XXX***333444333390&&&&&&333qw433333e8**XXX               ",
"            XXr&&&&&&&&&&&&&&&t>>y&&&&&>>>&&&&&&&&&&&&&&uXXX            ",
"            XXX&&&&&&&&&&&&&&&>>>&&&&&&>>>&&&&=&i&&=&&&&&XXX            ",
"            XXX&&&&&&&&&&&&&&&>>>&=====>>>&&&&&&&&&&&=&&&XXX            ",
"            XXX&&&pppppa&&&***&&&&&&&&&&&&***&&spppppp&&&XXX            ",
"            XXX&&&pppppp&=&***&&&&&&&&&&&&***&&&pppppp&&&XXX            ",
"            XXX&&&pppppp&&&***&&&&&&&&&&&&***&&&pppppp&&&XXX            ",
"            XXX&&&pppdddppppppppppppppppppppppppdddppp&&&XXX            ",
"            XXX&&&pppdddppppppppppppppppppppppppdddppp&&&XXX            ",
"            XXX&&&pppdddppppppppppppppppppppppppdddppp&&&XXX            ",
"            XXX&&&&&&fppddddddddddddddddddddddddppp&&&&&&XXX            ",
"            XXX&&&&&&pppdddghdddddddddddddddddddppp&&&&&&XXX            ",
"            XXX&&&&&&pppgdddddddddddddddddddddddppp&&j&&&XXX            ",
"               XXX***&&&pppppppppppppppppppppppp&&&-**XXX               ",
"               XXX***&&&pppppppppppppppppppppppp&&&***XXX               ",
"               XXX***&&&pppppppppppppppppppppppp&&&***XXX               ",
"                  XXX***s&&&&&&&&&&&&s&&&&&&&&&&**kXXX                  ",
"                  XXX***&&&&&&&&&&&&&&&&&&&&&&&&***XXX                  ",
"                  XXX-**&&&&&&&&&&&&&&&&&&&&&&&s***XXX                  ",
"               444lzxXXXXXXXXXXXXXXXXXXXXXXXXXXXXXXzzz444               ",
"               444zzzXXXXXXXXXXXXXXXXXXXXXXXXXXXXXXzzz444               ",
"               444zzzXXXXXXXXXXXXXXXXXXXXXXXXXXXXXXzzz444               ",
"               444cvbbbnzzzzzzzzzzzzzzzzzzzzzzzzzzm&&&&&&XXX            ",
"               444bbbbbbzzzlzzzzzzzzzzzzzzzzlzMzzzz&&&&&&XXX            ",
"               444bbbbbbzzzzzzzzzzzzzzzzzzzzzzzzzzz&&&&&&XXX            ",
"               XXX&&&&&&bbbbbbbbbbbbbbbbbbNBbbbbbbVCCC&&&XXX            ",
"               XXX&&&&&&vbbbbbbbbbbbbbbbbbbbbbbbbbcCCC&&&XXX            ",
"               XXX&&&&&&nbnbbbbbbbbbbbbbbbbbbbbbbbnCCC&&&XXX            ",
"               XXX&&&CCCbbbbbbbbbbbbbbbbbbbbbbbb444444XXX               ",
"               XXX&&&CCCZbbbbbbbbbbbbbbbbbbbbbbb444444XXX               ",
"               XXX&&&CCCZbbbbAbbbbbbbbbbbbbbbbbS444444XXX               ",
"                  XXX444DzzzzzzzzzzzzzzzzzzzzzzF444                     ",
"                  XXX444GzzzzzzzzzzzzzzzzzzzzzzH444                     ",
"                  XXX444zzzzzzzzzzzzzzzzzzzzzzzz444                     ",
"                     444JKKKKKKKKKKKKKKKKKKKKKKK444                     ",
"                     444LKKKKKKKKKKKKKKKKKKKKKKK444                     ",
"                     444PKKKKKKKKKKKKKKKKKKKKKKK444                     ",
"                     444IIIIII444XXXXXXXXXUYYYYY444                     ",
"                     444IIIIII444XXXXXXXXXYYYYYY444                     ",
"                     444IIIIII444XXXXXXXXXTYYYYY444                     ",
"                        444444         444IIIIII444                     ",
"                        444444         444IIIIII444                     ",
"                        444444         444IIIIII444                     ",
"                                          444444                        ",
"                                          444444                        ",
"                                          444444                        ",
"                                                                        ",
"                                                                        ",
"                                                                        "
};
