/* XPM */
static char *xpm_[] = {
/* columns rows colors chars-per-pixel */
"72 72 3 1 ",
"  c #479757",
". c #37854E",
"X c #2D7256",
/* pixels */
"                                                                        ",
"                                                                        ",
"                                                                        ",
"                                                                        ",
"                                                                        ",
"                                                                        ",
"                                                                        ",
"                                                                        ",
"                                                                        ",
"                                                                        ",
"                                                                        ",
"                                                                        ",
"                                                                        ",
"                                                                        ",
"                      ...                                               ",
"                      ...                                               ",
"                      ...                                               ",
"                   ......                                               ",
"                   ......                                               ",
"                   ......                                               ",
"                   .........                                            ",
"                   .........                                            ",
"                   .........                                            ",
"                   ...XXXXXX                     ...                    ",
"                   ...XXXXXX                     ...                    ",
"                   ...XXXXXX                     ...                    ",
"                                                 ......                 ",
"                                                 ......                 ",
"                                                 ......                 ",
"                                              ......XXX                 ",
"                                              ......XXX                 ",
"                                              ......XXX                 ",
"                                                                        ",
"                                                                        ",
"                                                                        ",
"                                                                        ",
"                                                                        ",
"                                                                        ",
"                                                                        ",
"                                                                        ",
"                                                                        ",
"                                        ...                             ",
"                                        ...                             ",
"                                        ...                             ",
"                      ...               ......                          ",
"                      ...               ......                          ",
"                      ...               ......                          ",
"                      XXX...            .........                       ",
"                      XXX...            .........                       ",
"                      XXX...            .........                       ",
"                      XXX......                                         ",
"                      XXX......                                         ",
"                      XXX......                                         ",
"                                                                        ",
"                                                                        ",
"                                                                        ",
"                                                                        ",
"                                                                        ",
"                                                                        ",
"                                                                        ",
"                                                                        ",
"                                                                        ",
"                                                                        ",
"                                                                        ",
"                                                                        ",
"                                                                        ",
"                                                                        ",
"                                                                        ",
"                                                                        ",
"                                                                        ",
"                                                                        ",
"                                                                        "
};
