/* XPM */
static char *xpm_[] = {
/* columns rows colors chars-per-pixel */
"72 72 20 1 ",
"  c #479757",
". c #7E3949",
"X c #9C3D42",
"o c #C9913A",
"O c #C58332",
"+ c #3A3A50",
"@ c #B94335",
"# c #C16B36",
"$ c #9E2B2D",
"% c #CB2A2A",
"& c #ED931E",
"* c #E63F38",
"= c #A82B2D",
"- c #6B383B",
"; c #573C2C",
": c #63412F",
"> c #6B4B30",
", c #7B5B3A",
"< c #37854E",
"1 c #2D7256",
/* pixels */
"                        ......XXX                                       ",
"                        ......XXX                                       ",
"                        ......XXX                                       ",
"                  XXXXXXoooooooooOOOXXX                                 ",
"                  XXXXXXoooooooooOOOXXX                                 ",
"                  XXXXXXoooooooooOOOXXX                                 ",
"               ......ooooooOOOoooOOO...   XXXXXX++++++                  ",
"               ......ooooooOOOoooOOO...   XXXXXX++++++                  ",
"               ......ooooooOOOoooOOO...   XXXXXX++++++                  ",
"            ......OOOoooOOOoooOOOoooXXX......@@@######...               ",
"            ......OOOoooOOOoooOOOoooXXX......@@@######...               ",
"            ......OOOoooOOOoooOOOoooXXX......@@@######...               ",
"         ......XXXOOOOOOoooooooooooo###...@@@OOO######@@@...            ",
"         ......XXXOOOOOOoooooooooooo###...@@@OOO######@@@...            ",
"         ......XXXOOOOOOoooooooooooo###...@@@OOO######@@@...            ",
"         +++###@@@...OOOOOOOOO######XXX...###OOO#########@@@XXX         ",
"         +++###@@@...OOOOOOOOO######XXX...###OOO#########@@@XXX         ",
"         +++###@@@...OOOOOOOOO######XXX...###OOO#########@@@XXX         ",
"         ...######@@@@@@OOO@@@XXXXXX.........OOOOOO######@@@+++         ",
"         ...######@@@@@@OOO@@@XXXXXX.........OOOOOO######@@@+++         ",
"         ...######@@@@@@OOO@@@XXXXXX.........OOOOOO######@@@+++         ",
"         +++...###############...XXXXXX...$$$@@@#########XXX+++         ",
"         +++...###############...XXXXXX...$$$@@@#########XXX+++         ",
"         +++...###############...XXXXXX...$$$@@@#########XXX+++         ",
"         +++...@@@@@@XXX.........XXX###%%%&&&***...+++XXX+++            ",
"         +++...@@@@@@XXX.........XXX###%%%&&&***...+++XXX+++            ",
"         +++...@@@@@@XXX.........XXX###%%%&&&***...+++XXX+++            ",
"            +++...............@@@@@@###===***%%%---+++......            ",
"            +++...............@@@@@@###===***%%%---+++......            ",
"            +++...............@@@@@@###===***%%%---+++......            ",
"         XXX...@@@@@@......+++@@@@@@######$$$---@@@XXX+++               ",
"         XXX...@@@@@@......+++@@@@@@######$$$---@@@XXX+++               ",
"         XXX...@@@@@@......+++@@@@@@######$$$---@@@XXX+++               ",
"         ...XXX######@@@XXX+++XXX@@@@@@@@@......+++                     ",
"         ...XXX######@@@XXX+++XXX@@@@@@@@@......+++                     ",
"         ...XXX######@@@XXX+++XXX@@@@@@@@@......+++                     ",
"         +++XXX@@@###@@@...$$$...@@@@@@XXXXXX++++++                     ",
"         +++XXX@@@###@@@...$$$...@@@@@@XXXXXX++++++                     ",
"         +++XXX@@@###@@@...$$$...@@@@@@XXXXXX++++++                     ",
"            +++XXXXXX...%%%&&&+++......+++++++++                        ",
"            +++XXXXXX...%%%&&&+++......+++++++++                        ",
"            +++XXXXXX...%%%&&&+++......+++++++++                        ",
"               +++......===***%%%---+++++++++                           ",
"               +++......===***%%%---+++++++++                           ",
"               +++......===***%%%---+++++++++                           ",
"                     ;;;:::$$$---+++>>>+++                              ",
"                     ;;;:::$$$---+++>>>+++                              ",
"                     ;;;:::$$$---+++>>>+++                              ",
"                        :::>>>+++;;;;;;+++                              ",
"                        :::>>>+++;;;;;;+++                              ",
"                        :::>>>+++;;;;;;+++                              ",
"                        +++:::+++>>>;;;                                 ",
"                        +++:::+++>>>;;;                                 ",
"                        +++:::+++>>>;;;                                 ",
"                           +++:::,,,+++                                 ",
"                           +++:::,,,+++                                 ",
"                           +++:::,,,+++                                 ",
"                              +++,,,+++                                 ",
"                              +++,,,+++                                 ",
"                              +++,,,+++                                 ",
"                           <<<+++>>>+++<<<                              ",
"                           <<<+++>>>+++<<<                              ",
"                           <<<+++>>>+++<<<                              ",
"                     <<<<<<111111>>>+++111111<<<                        ",
"                     <<<<<<111111>>>+++111111<<<                        ",
"                     <<<<<<111111>>>+++111111<<<                        ",
"                        <<<<<<<<<   111111<<<<<<                        ",
"                        <<<<<<<<<   111111<<<<<<                        ",
"                        <<<<<<<<<   111111<<<<<<                        ",
"                           <<<<<<   <<<   <<<                           ",
"                           <<<<<<   <<<   <<<                           ",
"                           <<<<<<   <<<   <<<                           "
};
