/* XPM */
static char *xpm_[] = {
/* columns rows colors chars-per-pixel */
"72 72 14 1 ",
"  c #479757",
". c #135452",
"X c #09685F",
"o c #2EB276",
"O c #28A376",
"+ c #3A3A50",
"@ c #147362",
"# c #238C71",
"$ c #63412F",
"% c #573C2C",
"& c #6B4B30",
"* c #7B5B3A",
"= c #37854E",
"- c #2D7256",
/* pixels */
"                        ......XXX                                       ",
"                        ......XXX                                       ",
"                        ......XXX                                       ",
"                  XXXXXXoooooooooOOOXXX                                 ",
"                  XXXXXXoooooooooOOOXXX                                 ",
"                  XXXXXXoooooooooOOOXXX                                 ",
"               ......ooooooOOOoooOOO...   XXXXXX++++++                  ",
"               ......ooooooOOOoooOOO...   XXXXXX++++++                  ",
"               ......ooooooOOOoooOOO...   XXXXXX++++++                  ",
"            ......OOOoooOOOoooOOOoooXXX......@@@######...               ",
"            ......OOOoooOOOoooOOOoooXXX......@@@######...               ",
"            ......OOOoooOOOoooOOOoooXXX......@@@######...               ",
"         ......XXXOOOOOOoooooooooooo###...@@@OOO######@@@...            ",
"         ......XXXOOOOOOoooooooooooo###...@@@OOO######@@@...            ",
"         ......XXXOOOOOOoooooooooooo###...@@@OOO######@@@...            ",
"         +++###@@@...OOOOOOOOO######XXX...###OOO#########@@@XXX         ",
"         +++###@@@...OOOOOOOOO######XXX...###OOO#########@@@XXX         ",
"         +++###@@@...OOOOOOOOO######XXX...###OOO#########@@@XXX         ",
"         ...######@@@@@@OOO@@@XXXXXX.........OOOOOO######@@@+++         ",
"         ...######@@@@@@OOO@@@XXXXXX.........OOOOOO######@@@+++         ",
"         ...######@@@@@@OOO@@@XXXXXX.........OOOOOO######@@@+++         ",
"         +++...###############...XXXXXX...XXX@@@#########XXX+++         ",
"         +++...###############...XXXXXX...XXX@@@#########XXX+++         ",
"         +++...###############...XXXXXX...XXX@@@#########XXX+++         ",
"         +++...@@@@@@XXX.........XXX######@@@@@@...+++XXX+++            ",
"         +++...@@@@@@XXX.........XXX######@@@@@@...+++XXX+++            ",
"         +++...@@@@@@XXX.........XXX######@@@@@@...+++XXX+++            ",
"            +++...............@@@@@@###############+++......            ",
"            +++...............@@@@@@###############+++......            ",
"            +++...............@@@@@@###############+++......            ",
"         XXX...@@@@@@......+++@@@@@@############@@@XXX+++               ",
"         XXX...@@@@@@......+++@@@@@@############@@@XXX+++               ",
"         XXX...@@@@@@......+++@@@@@@############@@@XXX+++               ",
"         ...XXX######@@@XXX+++XXX@@@@@@@@@......+++                     ",
"         ...XXX######@@@XXX+++XXX@@@@@@@@@......+++                     ",
"         ...XXX######@@@XXX+++XXX@@@@@@@@@......+++                     ",
"         +++XXX@@@###@@@.........@@@@@@XXXXXX++++++                     ",
"         +++XXX@@@###@@@.........@@@@@@XXXXXX++++++                     ",
"         +++XXX@@@###@@@.........@@@@@@XXXXXX++++++                     ",
"            +++XXXXXX......++++++......+++++++++                        ",
"            +++XXXXXX......++++++......+++++++++                        ",
"            +++XXXXXX......++++++......+++++++++                        ",
"               +++......$$$+++   ++++++++++++                           ",
"               +++......$$$+++   ++++++++++++                           ",
"               +++......$$$+++   ++++++++++++                           ",
"                     %%%$$$+++   +++&&&+++                              ",
"                     %%%$$$+++   +++&&&+++                              ",
"                     %%%$$$+++   +++&&&+++                              ",
"                        $$$&&&+++%%%%%%+++                              ",
"                        $$$&&&+++%%%%%%+++                              ",
"                        $$$&&&+++%%%%%%+++                              ",
"                        +++$$$+++&&&%%%                                 ",
"                        +++$$$+++&&&%%%                                 ",
"                        +++$$$+++&&&%%%                                 ",
"                           +++$$$***+++                                 ",
"                           +++$$$***+++                                 ",
"                           +++$$$***+++                                 ",
"                              +++***+++                                 ",
"                              +++***+++                                 ",
"                              +++***+++                                 ",
"                           ===+++&&&+++===                              ",
"                           ===+++&&&+++===                              ",
"                           ===+++&&&+++===                              ",
"                     ======------&&&+++------===                        ",
"                     ======------&&&+++------===                        ",
"                     ======------&&&+++------===                        ",
"                        =========   ------======                        ",
"                        =========   ------======                        ",
"                        =========   ------======                        ",
"                           ======   ===   ===                           ",
"                           ======   ===   ===                           ",
"                           ======   ===   ===                           "
};
