/* XPM */
static char *rcp16510643189783[] = {
/* columns rows colors chars-per-pixel */
"72 72 17 1 ",
"  c #34555D",
". c #396659",
"X c #6B5052",
"o c #9A5649",
"O c #A85F46",
"+ c #B5754D",
"@ c #64B63B",
"# c #37854E",
"$ c #479757",
"% c #9BC246",
"& c #B8D040",
"* c #2A709B",
"= c #2987A6",
"- c #3690AE",
"; c #369AB0",
": c #3CA3B2",
"> c #ACE89B",
/* pixels */
"$$$$$$$$$$$$$$$$$$$$$$$$$$$$$$$$$$$$$$$   ;;;:::::::::::::::::::::::::::",
"$$$$$$$$$$$$$$$$$$$$$$$$$$$$$$$$$$$$$$$   ;;;:::::::::::::::::::::::::::",
"$$$$$$$$$$$$$$$$$$$$$$$$$$$$$$$$$$$$$$$   ;;;:::::::::::::::::::::::::::",
"$$$$$$$$$$$$$$$$$$$$$$$$$$$$$$$$$$$$###   ;;;:::::::::::::::::::::::::::",
"$$$$$$$$$$$$$$$$$$$$$$$$$$$$$$$$$$$$###   ;;;:::::::::::::::::::::::::::",
"$$$$$$$$$$$$$$$$$$$$$$$$$$$$$$$$$$$$###   ;;;:::::::::::::::::::::::::::",
"$$$$$$$$$$$$$$$$$$$$$$$$$$$$$$$$$###...***;;;:::::::::::::::::::::::::::",
"$$$$$$$$$$$$$$$$$$$$$$$$$$$$$$$$$###...***;;;:::::::::::::::::::::::::::",
"$$$$$$$$$$$$$$$$$$$$$$$$$$$$$$$$$###...***;;;:::::::::::::::::::::::::::",
"$$$$$$$$$$$$$$$$$$$$$$$$$$$$$$###...   ***;;;:::::::::::::::::::::::::::",
"$$$$$$$$$$$$$$$$$$$$$$$$$$$$$$###...   ***;;;:::::::::::::::::::::::::::",
"$$$$$$$$$$$$$$$$$$$$$$$$$$$$$$###...   ***;;;:::::::::::::::::::::::::::",
"$$$$$$###$$$$$$$$$$$$$$$$$$$$$$$$$$$   ===;;;:::::::::::::::::::::::::::",
"$$$$$$###$$$$$$$$$$$$$$$$$$$$$$$$$$$   ===;;;:::::::::::::::::::::::::::",
"$$$$$$###$$$$$$$$$$$$$$$$$$$$$$$$$$$   ===;;;:::::::::::::::::::::::::::",
"$$$$$$...$$$$$$$$$...$$$$$$$$$$$$$$$   ===;;;:::::::::::::::::::::::::::",
"$$$$$$...$$$$$$$$$...$$$$$$$$$$$$$$$   ===;;;:::::::::::::::::::::::::::",
"$$$$$$...$$$$$$$$$...$$$$$$$$$$$$$$$   ===;;;:::::::::::::::::::::::::::",
"###$$$...   ###$$$   $$$$$$$$$$$$   XXX===;;;:::::::::::::::::::::::::::",
"###$$$...   ###$$$   $$$$$$$$$$$$   XXX===;;;:::::::::::::::::::::::::::",
"###$$$...   ###$$$   $$$$$$$$$$$$   XXX===;;;:::::::::::::::::::::::::::",
"...###         ###   ###$$$      XXXXXX===;;;:::::::::::::::::::::::::::",
"...###         ###   ###$$$      XXXXXX===;;;:::::::::::::::::::::::::::",
"...###         ###   ###$$$      XXXXXX===;;;:::::::::::::::::::::::::::",
"   ...   XXX...   ...      XXXXXXoooXXX===;;;:::::::::::::::::::::::::::",
"   ...   XXX...   ...      XXXXXXoooXXX===;;;:::::::::::::::::::::::::::",
"   ...   XXX...   ...      XXXXXXoooXXX===;;;:::::::::::::::::::::::::::",
"XXXXXXXXXXXXooooooooooooooooooOOOOOOooo===;;;:::::::::::::::::::::::::::",
"XXX&&&>>>&&&ooooooooooooooooooOOOOOOooo===;;;:::::::::::::::::::::::::::",
"XXX&&&>>>&&&ooooooooooooooooooOOOOOOooo===;;;:::::::::::::::::::::::::::",
"OOO&&&>>>&&&+++OOOOOOOOOOOOoooOOOoooooo===;;;:::::::::::::::::::::::::::",
"OOO++++++&&&+++OOOOOOOOOOOOoooOOOoooooo===;;;:::::::::::::::::::::::::::",
"OOO++++++&&&+++OOOOOOOOOOOOoooOOOoooooo===;;;:::::::::::::::::::::::::::",
"OOOOOO+++&&&+++OOOOOOOOOOOOooooooooo***---;;;:::::::::::::::::::::::::::",
"OOO>>>%%%++++++OOOOOOOOOOOOooooooooo***---;;;:::::::::::::::::::::::::::",
"OOO>>>%%%++++++OOOOOOOOOOOOooooooooo***---;;;:::::::::::::::::::::::::::",
"***>>>%%%oooooooooOOO---*********===------::::::::::::::::::::::::::::::",
"***---OOO%%%ooooooOOO---*********===------::::::::::::::::::::::::::::::",
"***---OOO%%%ooooooOOO---*********===------::::::::::::::::::::::::::::::",
"---======%%%******======---------------:::::::::::::::::::::::::::::::::",
"---%%%@@@@@@******======---------------:::::::::::::::::::::::::::::::::",
"---%%%@@@@@@******======---------------:::::::::::::::::::::::::::::::::",
"---%%%@@@@@@------------------------::::::::::::::::::::::::::::::::::::",
"------------------------------------::::::::::::::::::::::::::::::::::::",
"------------------------------------::::::::::::::::::::::::::::::::::::",
";;;;;;;;;;;;;;;;;;;;;;;;;;;;;;;;;:::::::::::::::::::::::::::::::::::::::",
";;;;;;;;;;;;;;;;;;;;;;;;;;;;;;;;;:::::::::::::::::::::::::::::::::::::::",
";;;;;;;;;;;;;;;;;;;;;;;;;;;;;;;;;:::::::::::::::::::::::::::::::::::::::",
"::::::::::::::::::::::::::::::::::::::::::::::::::::::::::::::::::::::::",
"::::::::::::::::::::::::::::::::::::::::::::::::::::::::::::::::::::::::",
"::::::::::::::::::::::::::::::::::::::::::::::::::::::::::::::::::::::::",
"::::::::::::::::::::::::::::::::::::::::::::::::::::::::::::::::::::::::",
"::::::::::::::::::::::::::::::::::::::::::::::::::::::::::::::::::::::::",
"::::::::::::::::::::::::::::::::::::::::::::::::::::::::::::::::::::::::",
"::::::::::::::::::::::::::::::::::::::::::::::::::::::::::::::::::::::::",
"::::::::::::::::::::::::::::::::::::::::::::::::::::::::::::::::::::::::",
"::::::::::::::::::::::::::::::::::::::::::::::::::::::::::::::::::::::::",
"::::::::::::::::::::::::::::::::::::::::::::::::::::::::::::::::::::::::",
"::::::::::::::::::::::::::::::::::::::::::::::::::::::::::::::::::::::::",
"::::::::::::::::::::::::::::::::::::::::::::::::::::::::::::::::::::::::",
"::::::::::::::::::::::::::::::::::::::::::::::::::::::::::::::::::::::::",
"::::::::::::::::::::::::::::::::::::::::::::::::::::::::::::::::::::::::",
"::::::::::::::::::::::::::::::::::::::::::::::::::::::::::::::::::::::::",
"::::::::::::::::::::::::::::::::::::::::::::::::::::::::::::::::::::::::",
"::::::::::::::::::::::::::::::::::::::::::::::::::::::::::::::::::::::::",
"::::::::::::::::::::::::::::::::::::::::::::::::::::::::::::::::::::::::",
"::::::::::::::::::::::::::::::::::::::::::::::::::::::::::::::::::::::::",
"::::::::::::::::::::::::::::::::::::::::::::::::::::::::::::::::::::::::",
"::::::::::::::::::::::::::::::::::::::::::::::::::::::::::::::::::::::::",
"::::::::::::::::::::::::::::::::::::::::::::::::::::::::::::::::::::::::",
"::::::::::::::::::::::::::::::::::::::::::::::::::::::::::::::::::::::::",
"::::::::::::::::::::::::::::::::::::::::::::::::::::::::::::::::::::::::"
};
