/* XPM */
static char *rcp06304185256856[] = {
/* columns rows colors chars-per-pixel */
"72 72 66 1 ",
"  c #479757",
". c #46485E",
"X c #46465E",
"o c #46475E",
"O c #74B553",
"+ c #74B453",
"@ c #96C048",
"# c #98C147",
"$ c #95C048",
"% c #93BF49",
"& c #479657",
"* c #97C147",
"= c #464B5E",
"- c #73B453",
"; c #74B353",
": c #97C047",
"> c #549962",
", c #549862",
"< c #579A61",
"1 c #46465D",
"2 c #73B353",
"3 c #569961",
"4 c #63A650",
"5 c #64A750",
"6 c #3A3A50",
"7 c white",
"8 c #75B453",
"9 c #3B3B51",
"0 c #3C3C52",
"q c #FDFEFD",
"w c #94470A",
"e c #964206",
"r c #964307",
"t c #65A750",
"y c #915412",
"u c #94480A",
"i c #954609",
"p c #602A07",
"a c #944A0B",
"s c #45455D",
"d c #602B07",
"f c #954508",
"g c #964306",
"h c #65A850",
"j c #4280DD",
"k c #4380DC",
"l c #497ED3",
"z c #487ED4",
"x c #4380DB",
"c c #497ED4",
"v c #4995E3",
"b c #5493D7",
"n c #4A95E2",
"m c #4D94DE",
"M c #529760",
"N c #47465E",
"B c #4A445E",
"V c #4280DC",
"C c #4A7ED2",
"Z c #5C4A44",
"A c #B35E3F",
"S c #AE6046",
"D c #C37C5D",
"F c #C47C5C",
"G c #AC6049",
"H c #C27D5E",
/* pixels */
"                                                                        ",
"                                                                        ",
"                                                                        ",
"                               .XXXXXXXXXXX                             ",
"                               XXXXXXXXXXXX                             ",
"                               oXXXXXXXXXXX                             ",
"                         oXXXXXO++@#####$#%XXX                          ",
"                         XXXXXX+++####$####XXX                          ",
"                   &     XXXXXX+++###$$#*$#XXX                          ",
"                      =XX-+++++++++++++++++*##XXX                       ",
"                      XXX++++++++++++++++++###XXX                       ",
"                      XXX+++++;++++++++++++##:XXX                       ",
"                   XXX>,<++++++++++++++++++++++++XX1                    ",
"                   XXX,,,++++++++++++++++++++++++XXX                    ",
"                   XXX,,,++++++++++++++++++2+++++XXX                    ",
"                XXX2-++++3,,++++++++++++++++++444444XXX                 ",
"                XXX++++++,,,++++++++++++++++++444444XXX                 ",
"                XXX++++++,,,++++++++++++++++++444544XXX                 ",
"                oXX666777++++++++++8+++++++++++++444XXX                 ",
"                XXX666777++++++++++++++++++++++++444XXX                 ",
"                XXX666777++++++++++++++++++++++++444XXX                 ",
"                XXX666777444++++++++++++++++++++++++XXX                 ",
"                XXX666777444++++++++++++++++++++++++XXX                 ",
"                XXX906q77444++++++++++++++++++++++++XXX                 ",
"                XXX+++++++++++++++++++++++++++++++++XXX                 ",
"                XXX+++O+++++++++++++++++++++++++++++XXX                 ",
"                oXo+++++++++++++++++++++++++++++++++XXX                 ",
"                XXX444+++weeeee++++++++++++++++++444XXX                 ",
"                XXX444+++eeeere++++++++++++++++++444XXX                 ",
"                XXXt44+++yueeee++++++++++++++++++444XXX                 ",
"                XXXeeeieepppree+++++++++++++++445444XXX                 ",
"                XXXeeeeeepppere+++++++++++++++444444XXX                 ",
"                XXXraeeeepppeee+++++++++++++++444445sXX                 ",
"                XXXpppppdier+++++++++++++++444444XXX                    ",
"                XXXppppppeee+++++++++++++++444444XXX                    ",
"                XXXppppppeef+++++++++++++++444444XoX                    ",
"                XXXeeereg444++++++++++++444444444XXX                    ",
"                XXXeeeeee444++++++++++++444444444XXX                    ",
"                XXXieeeeu444++++++++++++444444444XXX                    ",
"                   XXX444+++++++++544544444444XXX                       ",
"                   XXX444+++++++++444444444444XXX                       ",
"                   XXX444+++++++++44h444444444XXX                       ",
"                      XXXXXXXXXXXXXXXXXXXXXXXX                          ",
"                      XXXXXXXXXXXXXXXXXXXXXXXX                          ",
"                      XXXXXXXXXXXXXXXXXXXXXXXs                          ",
"                      XXXjjjXXXkjjjlz666xjx666                          ",
"                      XXXjjjXXXjjjjjj666jjj666                          ",
"                      XXXjjjXXXkjjjjc666jjj666                          ",
"                      XXX++++++XXXvvb666jjj666                          ",
"                      XXX++++++XXXvvv666jjj666                          ",
"                      XXX++++++XXXnbm666jjj666                          ",
"                      XXX+++MMMXXXjjk666jjj666                          ",
"                      XXX+++MMMXXXjjj666jjj666                          ",
"                      XNB+++MMMXXXjkk666jjj666                          ",
"                   XXX666XXXXXX666666kjVjjj666                          ",
"                   XXX666XXXXXX666666jjjjjj666                          ",
"                   XXX666XXXXXX666666lCjjjj666                          ",
"                666ZZZAAAAAAAAAAASXXXXXX666666                          ",
"                666ZZZAAAAAAAAAAAAXXXXXX666666                          ",
"                666ZZZAAAAAAAAAAAAXXXXXX666666                          ",
"                666ZZZZZZAAAAAAAAAAAADFFFFFZZZXXX                       ",
"                666ZZZZZZAAAAAAAAAAAAFFFFFFZZZXXX                       ",
"                666ZZZZZZAAAAAAAAAAAGHFFFFFZZZXXX                       ",
"                   666666666XXXXXXXXXXXXZZZZZZ666                       ",
"                   666666666XXXXXXXXXXXXZZZZZZ666                       ",
"                   666666666XXXXXXXXXXXXZZZZZZ666                       ",
"                                        666666                          ",
"                                        666666                          ",
"                                        666666                          ",
"                                                                        ",
"                                                                        ",
"                                                                        "
};
