/* XPM */
static char *rcp06443285327873[] = {
/* columns rows colors chars-per-pixel */
"72 72 103 2 ",
"   c #479757",
".  c #46465E",
"X  c #479258",
"o  c #E18D01",
"O  c #E28D00",
"+  c #D38E08",
"@  c #46475E",
"#  c #479457",
"$  c #E18D00",
"%  c #D58708",
"&  c #D58E07",
"*  c #FBDB9D",
"=  c #FFE7B6",
"-  c #FFE7B5",
";  c #FDE1AA",
":  c #FFE5B3",
">  c #E08D01",
",  c #D48E08",
"<  c #DB8E04",
"1  c #FEE3AD",
"2  c #47485E",
"3  c #E6B051",
"4  c #F4B251",
"5  c #F3B251",
"6  c #3A3A50",
"7  c #F1B251",
"8  c #E7B051",
"9  c #E4B052",
"0  c #FBE4B4",
"q  c #F1E1AF",
"w  c #F3B151",
"e  c #F9E4B3",
"r  c #F3E1AF",
"t  c #E8DDAA",
"y  c #F5E3B1",
"u  c #E18E00",
"i  c #FFE6B5",
"p  c #3B3F50",
"a  c #EFE0AE",
"s  c #EEB051",
"d  c #EBDEAC",
"f  c #F0B252",
"g  c #E8B151",
"h  c #E28D01",
"j  c #E18D02",
"k  c #FEE5B2",
"l  c #FCE6B5",
"z  c #FEE7B6",
"x  c #E6DCA9",
"c  c #F0B151",
"v  c #F7E4B2",
"b  c #DC8D05",
"n  c #D78E07",
"m  c #F3B351",
"M  c #D88E06",
"N  c #F2E1AF",
"B  c #46475D",
"V  c #46485E",
"C  c #F1B252",
"Z  c #D48E09",
"A  c #DE8D03",
"S  c #FEE7B7",
"D  c #FC6653",
"F  c #F96753",
"G  c #DF8D03",
"H  c #FAE4B3",
"J  c #EBB151",
"K  c #EAB151",
"L  c #EDB152",
"P  c #E18E01",
"I  c #FEE6B5",
"U  c #DC8D04",
"Y  c #F9E3B2",
"T  c #E38F04",
"R  c #D89009",
"E  c #4C495A",
"W  c #F3AF4B",
"Q  c #47465E",
"!  c #E08C02",
"~  c #E29004",
"^  c #E49109",
"/  c #E38F05",
"(  c #E49108",
")  c #E28F04",
"_  c #544C56",
"`  c #48475D",
"'  c #3A3B51",
"]  c #F3B04E",
"[  c #D38F0C",
"{  c #3B3B51",
"}  c #D3900C",
"|  c #DD9007",
" . c #DD8E07",
".. c #E28F05",
"X. c #46465D",
"o. c #DE8F06",
"O. c #479657",
"+. c #D68F0B",
"@. c #EEE0AD",
"#. c #479458",
"$. c #479157",
"%. c #479257",
"&. c #F3E3B0",
/* pixels */
"                                                                                                                                                ",
"                                                                                                                                                ",
"                                                                                                                                                ",
"                                                                                                                                                ",
"                                                                                                                                                ",
"                                                                                                                                                ",
"                                                                                      . . .                         . . .                       ",
"                                                                                      . . .                         . . .                       ",
"                                                                                      . . .                       X . . .                       ",
"                                                                                . . . o O + . . @             . . . O O O . . .                 ",
"                                                                                . . . O O O . . .             . . . O O O . . .                 ",
"                                                                                . . . O O O . . .           # . . . O O O . . .                 ",
"                                                                          . . . O O $ O O O . . . . . . . . . O O O O O O . . .                 ",
"                                                                          . . . O O O O O O . . . . . . . . . O O O O O O . . .                 ",
"                                                                          . . . O O O O O O . . . . . . . . . O O O O O O . . .                 ",
"                                                                    . . . O O O O O O O O O O O O O O O O O O O O O O O O % O O . . .           ",
"                                                                    . . . O O O O O O O O O O O O O O O O O O O O O O O O O O O . . .           ",
"                                                                    . . . O O O O O O O O O O O O $ O O O O O O $ $ $ O & O O O . . .           ",
"                                                                    . . . O O O O O $ O O O * = - O O O O O O O O O ; = : O O > . . .           ",
"                                                                    . . . O O O O $ $ O O O = = = O O O O O O O O O = = = O O O . . .           ",
"                                                                    . . . , O O O O O O O < = - = o O O O O O O O O 1 = = o O o . . .           ",
"                                @ . 2 . . @                   . . . O O O O O O 3 4 4 4 4 5 6 6 6 7 4 4 O O O 7 4 8 6 6 6 O O O . . .           ",
"                                . . . . . .                   . . . O O O O O O 4 4 4 4 4 4 6 6 6 4 4 4 O O O 4 4 4 6 6 6 O O O . . .           ",
"                                . . . . . .                   . . . O O O O O O 9 4 4 4 4 4 6 6 6 4 4 4 O O O 4 4 4 6 6 6 O O O . . .           ",
"                          . . @ 0 = = = = q . . 2             . . . O O O w 4 4 e = = 4 4 4 6 6 6 4 4 4 O O O 4 4 4 6 6 6 5 4 4 . . .           ",
"                          . . . = = = r = = . . .             . . . O O O 4 4 4 = = = 4 5 4 6 6 6 4 4 4 O O O 4 4 4 6 6 6 4 4 4 . . .           ",
"                          . . . = t = = = y . . .             . . . O O u 4 4 4 i = = 4 4 4 6 6 p 4 4 4 O O O 5 4 4 6 6 6 4 4 4 . . .           ",
"                    . . . = = a 8 4 s 4 4 4 = = = . . . . . . @ . . 4 4 4 d = = = = = 4 4 4 5 4 4 4 4 4 4 4 5 5 4 4 4 4 4 4 4 4 . . .           ",
"                    . . . = = = 4 4 4 4 4 4 = = = . . . . . . . . . 4 4 4 = = = = = = 4 4 4 4 4 4 4 4 4 4 4 4 4 4 4 4 4 4 4 4 4 . . .           ",
"                    . . . = = = 4 4 4 4 4 4 = = = . . . . . . @ . 2 4 4 f = = = = = = 4 4 5 4 4 4 4 4 4 g 4 4 4 4 4 4 4 4 4 4 4 @ . .           ",
"                    . . . = = = 4 4 4 h h j 5 4 4 k = = h h h . . . l = = = = = = = = z = = 4 4 4 4 4 4 6 6 6 6 6 6 4 4 4 4 4 4 . . .           ",
"                    . . . = = = 4 4 4 h h h 4 4 4 = = = h h h . . . = = = = = = = = = = = = 4 4 4 4 4 4 6 6 6 6 6 6 4 4 4 4 4 4 . . .           ",
"                    . . . = = x 5 4 4 h h h 4 4 4 = = = h h h . . . = = = = = = = = = = = = 4 4 4 4 4 4 6 6 6 6 6 6 c 4 4 4 4 4 . . .           ",
"              . . . v = = c 4 4 b h h h h h h h h h h h h h h h h o . . . = = = z = = = = = 4 4 4 . . . . . . . . @ . . 4 4 4 4 . . .           ",
"              . . . = = = 4 4 4 n h h h h h h h h h h h h h h h h h . . . = = = = = = = = = 4 4 4 . . . . . . . . . . . 4 4 4 4 . . .           ",
"              . . . = = = m 4 m M h h h h h h h h h h h h h h h h h . . . z N = = = = = = = 4 4 4 . . . B . . . . . . V 4 5 4 C . . .           ",
"              . . . = = = Z h h h h h h h h h h h h h h h h h h h h h h A . . . = = = S = = 4 4 4 4 4 4 D F D D D 4 4 4 4 . . .                 ",
"              . . . = = = h h G h h h h h h h h h h h h h h h h h h h h h . . . = = = = = = 4 4 4 4 4 4 D D D D D 4 4 4 4 . . .                 ",
"              . . . = = = h h h h h h h h h h h h h h h h h h h h h h h h . . . z H = = = = J 4 K m L 4 F D D D D 4 4 4 4 . . .                 ",
"              @ . . = = = h h h h h h h h h h h h h h h h h h h o h h h h h h h . . @ = = = = = = = = = = = = = = z @ . .                       ",
"              . . . = = = h h h h h h h h h h u O O O h h h h h h h h h h h h P . . . = = = = = = = = = = = = = = = . . .                       ",
"              . . . = = I O O O O h h h O O O O O O $ $ $ $ O O O O O O O O O U . . . Y = = = = = = = = = = = = = = . . .                       ",
"                    . . . 4 4 4 h h h h h h h h h h h h h h h h h h h h h h h , T R T . . . . . . . . . . . . @ . .                             ",
"                    . . . 4 4 4 h h h h h h h h h h h h h h h h h h h h h h h h h T T . . . . . . . . . . . . . . .                             ",
"                    . . . 4 4 4 h h h h h h h h h h h h h h h h h h h h h h h h h T T . . . . . . . . . . . . . . .                             ",
"                    . . . 4 4 4 h h h h h h E . . . . . h h h h h h h h h h h h T T T T T T 7 4 4 4 4 m W 4 4 . . .                             ",
"                    . . . 4 4 4 h h h h h h . . . . . . h h h h h h h h h h h h T T T T T T 4 4 4 4 4 4 4 4 4 . . .                             ",
"                    . . . 4 4 4 h h h h h h . Q . . . . n h h ! h h h h h h h h h T T T T T 4 4 4 4 4 4 4 4 4 . . .                             ",
"                    . . . 4 4 4 h h h E . . 6 6 6       2 . . . . . . . . . . . T T T T ~ T ^ / ( 4 4 4 4 4 4 . . .                             ",
"                    . . . 4 4 4 h h h . . . 6 6 6       . . . . . . . . . . . . T T T T ) T T T T 4 4 4 4 4 4 . . .                             ",
"                    . . . 4 4 4 h h h _ ` . 6 6 '       . . . . . . . . . . . . T T T T ) T T T T 4 4 4 ] 4 4 . . .                             ",
"              6 6 6 [ T ~ . . . T T h T T T . . .                               . . . T T T T T T 4 4 4 . . . T T T . @ .                       ",
"              6 6 6 T T T . . . T T h T T T . . .                               . . . T ) T T T T 4 4 4 . . . T T T . . .                       ",
"              6 6 { } |  .. . . T T h T T T . . .                               . . . T T ~ T ..T 4 4 4 . . . T T T . . .                       ",
"        6 6 { = = q x = = @ . . T T T T T T @ . .                               . . . T T T T T T X.. . . . . T T T = = = . B .                 ",
"        6 6 6 = = = = = = . . . T T T T T T . . .                               . . . T T T T T T . . . . . . T T T = = = . . .                 ",
"        6 6 6 = = = S = e . . . o.T T T T T @ . .                             O.. . . T T T T T +.. . . @ . . T T T = = = . . .                 ",
"        6 6 6 = = = 6 6 6       . . . T T T e = = @ . .                   . . . N = = y = = . . .   O.        . . . = = = = = = . . .           ",
"        6 6 6 = = = 6 6 6       . . . T T T = = = . . .                   . . . = = = = = = . . .             . . . = = = = = = . . .           ",
"        6 6 { = = l 6 6 6       . . . T T T = = = . . .                   . . . = = = = = = . . .             . . . @.z = = = = . . .           ",
"              6 6 6             #.  $.. . . = = = = = = . . .             @ . . = = = . . .                         . . . . . .                 ",
"            O.6 6 6                   . . . = = = = = = . . .             . . . = = = . . .                         . . . . . .                 ",
"            $.6 6 6                 %.. . . &.= = = = = . . X.            . . . = = = . . .                         . . . . . .                 ",
"                                            . . . . . .                         . . . O.                                                        ",
"                                            . . . . . .                         . . .                                                           ",
"                                            . . . . . .                         . . .                                                           ",
"                                                                                                                                                ",
"                                                                                                                                                ",
"                                                                                                                                                ",
"                                                                                                                                                ",
"                                                                                                                                                ",
"                                                                                                                                                "
};
