/* XPM */
static char *xpm_[] = {
/* columns rows colors chars-per-pixel */
"72 72 9 1 ",
"  c #479757",
". c #37854E",
"X c #3690AE",
"o c #2987A6",
"O c #2D7256",
"+ c #2974A2",
"@ c #22648D",
"# c #215C81",
"$ c #369AB0",
/* pixels */
"                                                                        ",
"                                                                        ",
"                                                                        ",
"                                                                        ",
"                                                                        ",
"                                                                        ",
"                                                                        ",
"                                                                        ",
"                                                                        ",
"                                                                        ",
"                                                                        ",
"                                                                        ",
"                                             ...                        ",
"                                             ...                        ",
"                                             ...                        ",
"                           ...   ......   ............                  ",
"                           ...   ......   ............                  ",
"                           ...   ......   ............                  ",
"                  ...   .........XXXooo...OOO+++OOO                     ",
"                  ...   .........XXXooo...OOO+++OOO                     ",
"                  ...   .........XXXooo...OOO+++OOO                     ",
"                  OOOOOOOOOoooooooooooo+++@@@@@@OOOOOO                  ",
"                  OOOOOOOOOoooooooooooo+++@@@@@@OOOOOO                  ",
"                  OOOOOOOOOoooooooooooo+++@@@@@@OOOOOO                  ",
"               ...OOOOOO+++++++++@@@###############OOOOOO               ",
"               ...OOOOOO+++++++++@@@###############OOOOOO               ",
"               ...OOOOOO+++++++++@@@###############OOOOOO               ",
"               ...ooo+++##############################+++               ",
"               ...ooo+++##############################+++               ",
"               ...ooo+++##############################+++               ",
"               ...OOO##############################@@@...               ",
"               ...OOO##############################@@@...               ",
"               ...OOO##############################@@@...               ",
"               ......@@@###########################+++                  ",
"               ......@@@###########################+++                  ",
"               ......@@@###########################+++                  ",
"               ...XXX+++###########################+++                  ",
"               ...XXX+++###########################+++                  ",
"               ...XXX+++###########################+++                  ",
"               ...OOO@@@###########################+++                  ",
"               ...OOO@@@###########################+++                  ",
"               ...OOO@@@###########################+++                  ",
"                  ...###########################@@@+++...               ",
"                  ...###########################@@@+++...               ",
"                  ...###########################@@@+++...               ",
"                  OOO@@@#####################@@@+++OOO...               ",
"                  OOO@@@#####################@@@+++OOO...               ",
"                  OOO@@@#####################@@@+++OOO...               ",
"                  ...OOOOOO@@@############@@@OOOOOO...                  ",
"                  ...OOOOOO@@@############@@@OOOOOO...                  ",
"                  ...OOOOOO@@@############@@@OOOOOO...                  ",
"                     ...OOO@@@@@@++++++@@@OOOOOO                        ",
"                     ...OOO@@@@@@++++++@@@OOOOOO                        ",
"                     ...OOO@@@@@@++++++@@@OOOOOO                        ",
"                           .........$$$OOOOOO                           ",
"                           .........$$$OOOOOO                           ",
"                           .........$$$OOOOOO                           ",
"                                          ...                           ",
"                                          ...                           ",
"                                          ...                           ",
"                                                                        ",
"                                                                        ",
"                                                                        ",
"                                                                        ",
"                                                                        ",
"                                                                        ",
"                                                                        ",
"                                                                        ",
"                                                                        ",
"                                                                        ",
"                                                                        ",
"                                                                        "
};
