/* XPM */
static char *xpm_[] = {
/* columns rows colors chars-per-pixel */
"72 72 9 1 ",
"  c #479757",
". c #2D7256",
"X c #3690AE",
"o c #369AB0",
"O c #2987A6",
"+ c #2974A2",
"@ c #37854E",
"# c #22648D",
"$ c #215C81",
/* pixels */
"                                                                        ",
"                                                                        ",
"                                                                        ",
"                                                                        ",
"                                                                        ",
"                                                                        ",
"                                                                        ",
"                                                                        ",
"                                                                        ",
"                                                                        ",
"                                                                        ",
"                                                                        ",
"                                                                        ",
"                                                                        ",
"                                                                        ",
"                                                                        ",
"                                                                        ",
"                                                                        ",
"                                                                        ",
"                                                                        ",
"                                                                        ",
"                              ......   ...                              ",
"                              ......   ...                              ",
"                              ......   ...                              ",
"                        .........XXXXXX......                           ",
"                        .........XXXXXX......                           ",
"                        .........XXXXXX......                           ",
"                        oooXXXOOO++++++OOO...@@@                        ",
"                        oooXXXOOO++++++OOO...@@@                        ",
"                        oooXXXOOO++++++OOO...@@@                        ",
"                     @@@XXXOOO###$$$$$$###OOOooo                        ",
"                     @@@XXXOOO###$$$$$$###OOOooo                        ",
"                     @@@XXXOOO###$$$$$$###OOOooo                        ",
"                     @@@OOO+++$$$$$$$$$$$$+++XXX@@@                     ",
"                     @@@OOO+++$$$$$$$$$$$$+++XXX@@@                     ",
"                     @@@OOO+++$$$$$$$$$$$$+++XXX@@@                     ",
"                        ...###$$$$$$$$$$$$+++...@@@                     ",
"                        ...###$$$$$$$$$$$$+++...@@@                     ",
"                        ...###$$$$$$$$$$$$+++...@@@                     ",
"                        ......###$$$$$$###......                        ",
"                        ......###$$$$$$###......                        ",
"                        ......###$$$$$$###......                        ",
"                           ...++++++@@@...                              ",
"                           ...++++++@@@...                              ",
"                           ...++++++@@@...                              ",
"                              @@@...                                    ",
"                              @@@...                                    ",
"                              @@@...                                    ",
"                                                                        ",
"                                                                        ",
"                                                                        ",
"                                                                        ",
"                                                                        ",
"                                                                        ",
"                                                                        ",
"                                                                        ",
"                                                                        ",
"                                                                        ",
"                                                                        ",
"                                                                        ",
"                                                                        ",
"                                                                        ",
"                                                                        ",
"                                                                        ",
"                                                                        ",
"                                                                        ",
"                                                                        ",
"                                                                        ",
"                                                                        ",
"                                                                        ",
"                                                                        ",
"                                                                        "
};
