/* XPM */
static char *_0b335437cb84380ac6c6565c8531f99zdwOcNzpnfjNnQYX[] = {
/* columns rows colors chars-per-pixel */
"72 72 21 1 ",
"  c #479757",
". c #46465E",
"X c #FEC000",
"o c #FFBF00",
"O c #46475E",
"+ c #FEFFFE",
"@ c white",
"# c #D78301",
"$ c #D48303",
"% c #FABE02",
"& c #46485E",
"* c #FDBF00",
"= c #FEBF00",
"- c #D68302",
"; c #D48302",
": c #FDBF01",
"> c #FEC001",
", c #F3BD05",
"< c #FDC001",
"1 c #F4BE05",
"2 c #F9BE03",
/* pixels */
"                                                                        ",
"                                                                        ",
"                                                                        ",
"                                                                        ",
"                                                                        ",
"                                                                        ",
"                                                                        ",
"                                                                        ",
"                                                                        ",
"                                                                        ",
"                                                                        ",
"                                                                        ",
"                                                                        ",
"                                                                        ",
"                                                                        ",
"                                                                        ",
"                                                                        ",
"                                                                        ",
"                                                                        ",
"                                                                        ",
"                              ............                              ",
"                              ............                              ",
"                              ............                              ",
"                           ...Xoo...oooooo...                           ",
"                           ...ooo...oooooo...                           ",
"                           ...ooo...oooooo...                           ",
"                        ..Oooo...ooo+@@##$ooo..O                        ",
"                        ...ooo...ooo@@@###ooo...                        ",
"                        ...ooo...ooo@@@###ooo...                        ",
"                     ...@@+...XoX@@+#########oo%..&                     ",
"                     ...@@@...ooo@@@#########ooo...                     ",
"                     ...@@@...ooo@@@#########ooo...                     ",
"                     ...@@@...ooo######Xoooooooo...                     ",
"                     ...@@@...ooo######ooooooooo...                     ",
"                     ...@@@...ooo######ooooooooo...                     ",
"                     ...*==...ooo###ooo##-oooooo...                     ",
"                     ...===...ooo###ooo###oooooo...                     ",
"                     ...===...ooo###ooo##;oooooo...                     ",
"                     ...=*=...ooo###ooo:o>@@@ooo...                     ",
"                     ...=*=...ooo###oooooo@@@ooo...                     ",
"                     ...===...ooo###oooooo@@@ooo...                     ",
"                     ...=*=...oooXooooo@@@XoXooo...                     ",
"                     ...===...ooooooooo@@@oooooo...                     ",
"                     ...==*...oo%oooooo@@@oooooo...                     ",
"                        ...*=*...oooooooooooo...                        ",
"                        ...===...oooooooooooo...                        ",
"                        ...==,...oooooooooooo...                        ",
"                           ...<=*...oooooo...                           ",
"                           ...===...ooo<oo...                           ",
"                           ...==1...2oo:oo...                           ",
"                              ............                              ",
"                              ............                              ",
"                              ...........O                              ",
"                                                                        ",
"                                                                        ",
"                                                                        ",
"                                                                        ",
"                                                                        ",
"                                                                        ",
"                                                                        ",
"                                                                        ",
"                                                                        ",
"                                                                        ",
"                                                                        ",
"                                                                        ",
"                                                                        ",
"                                                                        ",
"                                                                        ",
"                                                                        ",
"                                                                        ",
"                                                                        ",
"                                                                        "
};
