/* XPM */
static char *rcp164700261686[] = {
/* columns rows colors chars-per-pixel */
"72 72 13 1 ",
"  c #34555D",
". c #396659",
"X c #6B5052",
"o c #9A5649",
"O c #A85F46",
"+ c #B5754D",
"@ c #37854E",
"# c #479757",
"$ c #2A709B",
"% c #2987A6",
"& c #3690AE",
"* c #369AB0",
"= c #3CA3B2",
/* pixels */
"########################################################################",
"########################################################################",
"########################################################################",
"########################################################################",
"########################################################################",
"########################################################################",
"########################################################################",
"########################################################################",
"########################################################################",
"########################################################################",
"########################################################################",
"########################################################################",
"######@@@#############################################@@@###############",
"######@@@#############################################@@@###############",
"######@@@#############################################@@@###############",
"######...###############...###########################...###############",
"######...###############...###########################...###############",
"######...###############...###########################...###############",
"@@@###...   @@@######@@@   ######@@@######@@@###@@@###...   @@@######@@@",
"@@@###...   @@@######@@@   ######@@@######@@@###@@@###...   @@@######@@@",
"@@@###...   @@@######@@@   ######@@@######@@@###@@@###...   @@@######@@@",
"...@@@         @@@###      @@@###...######...   ...@@@         @@@###   ",
"...@@@         @@@###      @@@###...######...   ...@@@         @@@###   ",
"...@@@         @@@###      @@@###...######...   ...@@@         @@@###   ",
"   ...XXXXXX...      XXX...      XXX      XXXXXX   ...XXXXXX...      XXX",
"   ...XXXXXX...      XXX...      XXX      XXXXXX   ...XXXXXX...      XXX",
"   ...XXXXXX...      XXX...      XXX      XXXXXX   ...XXXXXX...      XXX",
"OOOOOOOOOoooXXXXXXoooOOOoooXXXXXXXXXooooooooooooOOOOOOOOOoooXXXXXXoooOOO",
"OOOOOOOOOoooXXXXXXoooOOOoooXXXXXXXXXooooooooooooOOOOOOOOOoooXXXXXXoooOOO",
"OOOOOOOOOoooXXXXXXoooOOOoooXXXXXXXXXooooooooooooOOOOOOOOOoooXXXXXXoooOOO",
"OOO+++++++++OOOOOO+++++++++++++++OOOOOOOOOooooooOOO+++++++++OOOOOO++++++",
"OOO+++++++++OOOOOO+++++++++++++++OOOOOOOOOooooooOOO+++++++++OOOOOO++++++",
"OOO+++++++++OOOOOO+++++++++++++++OOOOOOOOOooooooOOO+++++++++OOOOOO++++++",
"oooOOO+++OOOOOOOOOOOOOOOOOO++++++OOOOOOOOOoooooooooOOO+++OOOOOOOOOOOOOOO",
"oooOOO+++OOOOOOOOOOOOOOOOOO++++++OOOOOOOOOoooooooooOOO+++OOOOOOOOOOOOOOO",
"oooOOO+++OOOOOOOOOOOOOOOOOO++++++OOOOOOOOOoooooooooOOO+++OOOOOOOOOOOOOOO",
"$$$&&&ooooooooo&&&$$$$$$&&&OOOooooooOOO&&&$$$$$$$$$&&&ooooooooo&&&$$$$$$",
"$$$&&&ooooooooo&&&$$$$$$&&&OOOooooooOOO&&&$$$$$$$$$&&&ooooooooo&&&$$$$$$",
"$$$&&&ooooooooo&&&$$$$$$&&&OOOooooooOOO&&&$$$$$$$$$&&&ooooooooo&&&$$$$$$",
"&&&%%%%%%%%%%%%%%%&&&&&&%%%$$$$$$$$$%%%%%%&&&&&&&&&%%%%%%%%%%%%%%%&&&&&&",
"&&&%%%%%%%%%%%%%%%&&&&&&%%%$$$$$$$$$%%%%%%&&&&&&&&&%%%%%%%%%%%%%%%&&&&&&",
"&&&%%%%%%%%%%%%%%%&&&&&&%%%$$$$$$$$$%%%%%%&&&&&&&&&%%%%%%%%%%%%%%%&&&&&&",
"&&&&&&&&&&&&&&&&&&&&&&&&&&&&&&&&&&&&&&&&&&&&&&&&&&&&&&&&&&&&&&&&&&&&&&&&",
"&&&&&&&&&&&&&&&&&&&&&&&&&&&&&&&&&&&&&&&&&&&&&&&&&&&&&&&&&&&&&&&&&&&&&&&&",
"&&&&&&&&&&&&&&&&&&&&&&&&&&&&&&&&&&&&&&&&&&&&&&&&&&&&&&&&&&&&&&&&&&&&&&&&",
"************************************************************************",
"************************************************************************",
"************************************************************************",
"========================================================================",
"========================================================================",
"========================================================================",
"========================================================================",
"========================================================================",
"========================================================================",
"========================================================================",
"========================================================================",
"========================================================================",
"========================================================================",
"========================================================================",
"========================================================================",
"========================================================================",
"========================================================================",
"========================================================================",
"========================================================================",
"========================================================================",
"========================================================================",
"========================================================================",
"========================================================================",
"========================================================================",
"========================================================================",
"========================================================================",
"========================================================================"
};
