/* XPM */
static char *rcp1646327766623[] = {
/* columns rows colors chars-per-pixel */
"72 72 7 1 ",
"  c #34555D",
". c #396659",
"X c #37854E",
"o c #479757",
"O c #2A709B",
"+ c #369AB0",
"@ c #3CA3B2",
/* pixels */
"oooooooooooooooooooooooooooooooooXXX...OOO+++@@@@@@@@@@@@@@@@@@@@@@@@@@@",
"oooooooooooooooooooooooooooooooooXXX...OOO+++@@@@@@@@@@@@@@@@@@@@@@@@@@@",
"oooooooooooooooooooooooooooooooooXXX...OOO+++@@@@@@@@@@@@@@@@@@@@@@@@@@@",
"ooooooooooooooooooooooooooooooooooooXXX   +++@@@@@@@@@@@@@@@@@@@@@@@@@@@",
"ooooooooooooooooooooooooooooooooooooXXX   +++@@@@@@@@@@@@@@@@@@@@@@@@@@@",
"ooooooooooooooooooooooooooooooooooooXXX   +++@@@@@@@@@@@@@@@@@@@@@@@@@@@",
"ooooooooooooooooooooooooooooooooooooooo   +++@@@@@@@@@@@@@@@@@@@@@@@@@@@",
"ooooooooooooooooooooooooooooooooooooooo   +++@@@@@@@@@@@@@@@@@@@@@@@@@@@",
"ooooooooooooooooooooooooooooooooooooooo   +++@@@@@@@@@@@@@@@@@@@@@@@@@@@",
"oooooooooooooooooooooooooooooooooooo...OOO+++@@@@@@@@@@@@@@@@@@@@@@@@@@@",
"oooooooooooooooooooooooooooooooooooo...OOO+++@@@@@@@@@@@@@@@@@@@@@@@@@@@",
"oooooooooooooooooooooooooooooooooooo...OOO+++@@@@@@@@@@@@@@@@@@@@@@@@@@@",
"ooooooooooooooooooooooooooooooooooooooo   +++@@@@@@@@@@@@@@@@@@@@@@@@@@@",
"ooooooooooooooooooooooooooooooooooooooo   +++@@@@@@@@@@@@@@@@@@@@@@@@@@@",
"ooooooooooooooooooooooooooooooooooooooo   +++@@@@@@@@@@@@@@@@@@@@@@@@@@@",
"oooooooooooooooooooooooooooooooooooo...OOO+++@@@@@@@@@@@@@@@@@@@@@@@@@@@",
"oooooooooooooooooooooooooooooooooooo...OOO+++@@@@@@@@@@@@@@@@@@@@@@@@@@@",
"oooooooooooooooooooooooooooooooooooo...OOO+++@@@@@@@@@@@@@@@@@@@@@@@@@@@",
"ooooooooooooooooooooooooooooooooo......OOO+++@@@@@@@@@@@@@@@@@@@@@@@@@@@",
"ooooooooooooooooooooooooooooooooo......OOO+++@@@@@@@@@@@@@@@@@@@@@@@@@@@",
"ooooooooooooooooooooooooooooooooo......OOO+++@@@@@@@@@@@@@@@@@@@@@@@@@@@",
"ooooooooooooooooooooooooooooooXXXXXX...   +++@@@@@@@@@@@@@@@@@@@@@@@@@@@",
"ooooooooooooooooooooooooooooooXXXXXX...   +++@@@@@@@@@@@@@@@@@@@@@@@@@@@",
"ooooooooooooooooooooooooooooooXXXXXX...   +++@@@@@@@@@@@@@@@@@@@@@@@@@@@",
"oooooooooooooooooooooooooooooooooooo...   +++@@@@@@@@@@@@@@@@@@@@@@@@@@@",
"oooooooooooooooooooooooooooooooooooo...   +++@@@@@@@@@@@@@@@@@@@@@@@@@@@",
"oooooooooooooooooooooooooooooooooooo...   +++@@@@@@@@@@@@@@@@@@@@@@@@@@@",
"oooooooooooooooooooooooooooooooooooooooOOO+++@@@@@@@@@@@@@@@@@@@@@@@@@@@",
"oooooooooooooooooooooooooooooooooooooooOOO+++@@@@@@@@@@@@@@@@@@@@@@@@@@@",
"oooooooooooooooooooooooooooooooooooooooOOO+++@@@@@@@@@@@@@@@@@@@@@@@@@@@",
"ooooooooooooooooooooooooooooooooooooXXX   +++@@@@@@@@@@@@@@@@@@@@@@@@@@@",
"ooooooooooooooooooooooooooooooooooooXXX   +++@@@@@@@@@@@@@@@@@@@@@@@@@@@",
"ooooooooooooooooooooooooooooooooooooXXX   +++@@@@@@@@@@@@@@@@@@@@@@@@@@@",
"oooooooooooooooooooooooooooXXX............+++@@@@@@@@@@@@@@@@@@@@@@@@@@@",
"oooooooooooooooooooooooooooXXX............+++@@@@@@@@@@@@@@@@@@@@@@@@@@@",
"oooooooooooooooooooooooooooXXX............+++@@@@@@@@@@@@@@@@@@@@@@@@@@@",
"oooooooooooooooooooooooooooooooooXXX   OOO+++@@@@@@@@@@@@@@@@@@@@@@@@@@@",
"oooooooooooooooooooooooooooooooooXXX   OOO+++@@@@@@@@@@@@@@@@@@@@@@@@@@@",
"oooooooooooooooooooooooooooooooooXXX   OOO+++@@@@@@@@@@@@@@@@@@@@@@@@@@@",
"ooooooooooooooooooooooooooooooooooooooo   +++@@@@@@@@@@@@@@@@@@@@@@@@@@@",
"ooooooooooooooooooooooooooooooooooooooo   +++@@@@@@@@@@@@@@@@@@@@@@@@@@@",
"ooooooooooooooooooooooooooooooooooooooo   +++@@@@@@@@@@@@@@@@@@@@@@@@@@@",
"ooooooooooooooooooooooooooooooooooooXXX   +++@@@@@@@@@@@@@@@@@@@@@@@@@@@",
"ooooooooooooooooooooooooooooooooooooXXX   +++@@@@@@@@@@@@@@@@@@@@@@@@@@@",
"ooooooooooooooooooooooooooooooooooooXXX   +++@@@@@@@@@@@@@@@@@@@@@@@@@@@",
"oooooooooooooooooooooooooooooooooXXX...OOO+++@@@@@@@@@@@@@@@@@@@@@@@@@@@",
"oooooooooooooooooooooooooooooooooXXX...OOO+++@@@@@@@@@@@@@@@@@@@@@@@@@@@",
"oooooooooooooooooooooooooooooooooXXX...OOO+++@@@@@@@@@@@@@@@@@@@@@@@@@@@",
"ooooooooooooooooooooooooooooooooooooooo   +++@@@@@@@@@@@@@@@@@@@@@@@@@@@",
"ooooooooooooooooooooooooooooooooooooooo   +++@@@@@@@@@@@@@@@@@@@@@@@@@@@",
"ooooooooooooooooooooooooooooooooooooooo   +++@@@@@@@@@@@@@@@@@@@@@@@@@@@",
"ooooooooooooooooooooooooooooooooooooXXX   +++@@@@@@@@@@@@@@@@@@@@@@@@@@@",
"ooooooooooooooooooooooooooooooooooooXXX   +++@@@@@@@@@@@@@@@@@@@@@@@@@@@",
"ooooooooooooooooooooooooooooooooooooXXX   +++@@@@@@@@@@@@@@@@@@@@@@@@@@@",
"oooooooooooooooooooooooooooooooooooo...   +++@@@@@@@@@@@@@@@@@@@@@@@@@@@",
"oooooooooooooooooooooooooooooooooooo...   +++@@@@@@@@@@@@@@@@@@@@@@@@@@@",
"oooooooooooooooooooooooooooooooooooo...   +++@@@@@@@@@@@@@@@@@@@@@@@@@@@",
"ooooooooooooooooooooooooooooooXXX...   OOO+++@@@@@@@@@@@@@@@@@@@@@@@@@@@",
"ooooooooooooooooooooooooooooooXXX...   OOO+++@@@@@@@@@@@@@@@@@@@@@@@@@@@",
"ooooooooooooooooooooooooooooooXXX...   OOO+++@@@@@@@@@@@@@@@@@@@@@@@@@@@",
"oooooooooooooooooooooooooooooooooooo...OOO+++@@@@@@@@@@@@@@@@@@@@@@@@@@@",
"oooooooooooooooooooooooooooooooooooo...OOO+++@@@@@@@@@@@@@@@@@@@@@@@@@@@",
"oooooooooooooooooooooooooooooooooooo...OOO+++@@@@@@@@@@@@@@@@@@@@@@@@@@@",
"ooooooooooooooooooooooooooooooooooooooo   +++@@@@@@@@@@@@@@@@@@@@@@@@@@@",
"ooooooooooooooooooooooooooooooooooooooo   +++@@@@@@@@@@@@@@@@@@@@@@@@@@@",
"ooooooooooooooooooooooooooooooooooooooo   +++@@@@@@@@@@@@@@@@@@@@@@@@@@@",
"ooooooooooooooooooooooooooooooXXX.........+++@@@@@@@@@@@@@@@@@@@@@@@@@@@",
"ooooooooooooooooooooooooooooooXXX.........+++@@@@@@@@@@@@@@@@@@@@@@@@@@@",
"ooooooooooooooooooooooooooooooXXX.........+++@@@@@@@@@@@@@@@@@@@@@@@@@@@",
"oooooooooooooooooooooooooooooooooXXX   OOO+++@@@@@@@@@@@@@@@@@@@@@@@@@@@",
"oooooooooooooooooooooooooooooooooXXX   OOO+++@@@@@@@@@@@@@@@@@@@@@@@@@@@",
"oooooooooooooooooooooooooooooooooXXX   OOO+++@@@@@@@@@@@@@@@@@@@@@@@@@@@"
};
