/* XPM */
static char *rcp16471490026737[] = {
/* columns rows colors chars-per-pixel */
"72 72 8 1 ",
"  c #34555D",
". c #396659",
"X c #37854E",
"o c #479757",
"O c #2987A6",
"+ c #3690AE",
"@ c #369AB0",
"# c #3CA3B2",
/* pixels */
"########################################################################",
"########################################################################",
"########################################################################",
"########################################################################",
"########################################################################",
"########################################################################",
"########################################################################",
"########################################################################",
"########################################################################",
"########################################################################",
"########################################################################",
"########################################################################",
"########################################################################",
"########################################################################",
"########################################################################",
"########################################################################",
"########################################################################",
"########################################################################",
"########################################################################",
"########################################################################",
"########################################################################",
"########################################################################",
"########################################################################",
"########################################################################",
"########################################################################",
"########################################################################",
"########################################################################",
"@@@@@@@@@@@@@@@@@@@@@@@@@@@@@@@@@@@@@@@@@@@@@@@@@@@@@@@@@@@@@@@@@@@@@@@@",
"@@@@@@@@@@@@@@@@@@@@@@@@@@@@@@@@@@@@@@@@@@@@@@@@@@@@@@@@@@@@@@@@@@@@@@@@",
"@@@@@@@@@@@@@@@@@@@@@@@@@@@@@@@@@@@@@@@@@@@@@@@@@@@@@@@@@@@@@@@@@@@@@@@@",
"++++++++++++++++++++++++++++++++++++++++++++++++++++++++++++++++++++++++",
"++++++++++++++++++++++++++++++++++++++++++++++++++++++++++++++++++++++++",
"++++++++++++++++++++++++++++++++++++++++++++++++++++++++++++++++++++++++",
"OOO...      OOO...      OOO      OOOOOO   ...   OOO...      OOO...      ",
"OOO...      OOO...      OOO      OOOOOO   ...   OOO...      OOO...      ",
"OOO...      OOO...      OOO      OOOOOO   ...   OOO...      OOO...      ",
"      XXXooo      XXXooo...oooooo...   ...XXX         XXXooo      XXXooo",
"      XXXooo      XXXooo...oooooo...   ...XXX         XXXooo      XXXooo",
"      XXXooo      XXXooo...oooooo...   ...XXX         XXXooo      XXXooo",
"   XXXooooooXXX   ooooooXXXooooooXXXoooXXXooo...   XXXooooooXXX   oooooo",
"   XXXooooooXXX   ooooooXXXooooooXXXoooXXXooo...   XXXooooooXXX   oooooo",
"   XXXooooooXXX   ooooooXXXooooooXXXoooXXXooo...   XXXooooooXXX   oooooo",
"ooooooooooooooo...ooooooooooooooooooooooooooo...ooooooooooooooo...oooooo",
"ooooooooooooooo...ooooooooooooooooooooooooooo...ooooooooooooooo...oooooo",
"ooooooooooooooo...ooooooooooooooooooooooooooo...ooooooooooooooo...oooooo",
"oooooooooooooooooooooooooooooooooooooooooooooXXXoooooooooooooooooooooooo",
"oooooooooooooooooooooooooooooooooooooooooooooXXXoooooooooooooooooooooooo",
"oooooooooooooooooooooooooooooooooooooooooooooXXXoooooooooooooooooooooooo",
"oooooooooooooooooooooooooooooooooooooooooooooooooooooooooooooooooooooooo",
"oooooooooooooooooooooooooooooooooooooooooooooooooooooooooooooooooooooooo",
"oooooooooooooooooooooooooooooooooooooooooooooooooooooooooooooooooooooooo",
"oooooooooooooooooooooooooooooooooooooooooooooooooooooooooooooooooooooooo",
"oooooooooooooooooooooooooooooooooooooooooooooooooooooooooooooooooooooooo",
"oooooooooooooooooooooooooooooooooooooooooooooooooooooooooooooooooooooooo",
"oooooooooooooooooooooooooooooooooooooooooooooooooooooooooooooooooooooooo",
"oooooooooooooooooooooooooooooooooooooooooooooooooooooooooooooooooooooooo",
"oooooooooooooooooooooooooooooooooooooooooooooooooooooooooooooooooooooooo",
"oooooooooooooooooooooooooooooooooooooooooooooooooooooooooooooooooooooooo",
"oooooooooooooooooooooooooooooooooooooooooooooooooooooooooooooooooooooooo",
"oooooooooooooooooooooooooooooooooooooooooooooooooooooooooooooooooooooooo",
"oooooooooooooooooooooooooooooooooooooooooooooooooooooooooooooooooooooooo",
"oooooooooooooooooooooooooooooooooooooooooooooooooooooooooooooooooooooooo",
"oooooooooooooooooooooooooooooooooooooooooooooooooooooooooooooooooooooooo",
"oooooooooooooooooooooooooooooooooooooooooooooooooooooooooooooooooooooooo",
"oooooooooooooooooooooooooooooooooooooooooooooooooooooooooooooooooooooooo",
"oooooooooooooooooooooooooooooooooooooooooooooooooooooooooooooooooooooooo",
"oooooooooooooooooooooooooooooooooooooooooooooooooooooooooooooooooooooooo",
"oooooooooooooooooooooooooooooooooooooooooooooooooooooooooooooooooooooooo",
"oooooooooooooooooooooooooooooooooooooooooooooooooooooooooooooooooooooooo",
"oooooooooooooooooooooooooooooooooooooooooooooooooooooooooooooooooooooooo",
"oooooooooooooooooooooooooooooooooooooooooooooooooooooooooooooooooooooooo",
"oooooooooooooooooooooooooooooooooooooooooooooooooooooooooooooooooooooooo"
};
