/* XPM */
static char *rcp16464013585427[] = {
/* columns rows colors chars-per-pixel */
"72 72 13 1 ",
"  c #34555D",
". c #396659",
"X c #6B5052",
"o c #9A5649",
"O c #A85F46",
"+ c #B5754D",
"@ c #37854E",
"# c #479757",
"$ c #2A709B",
"% c #2987A6",
"& c #3690AE",
"* c #369AB0",
"= c #3CA3B2",
/* pixels */
"#######################################   ***===========================",
"#######################################   ***===========================",
"#######################################   ***===========================",
"####################################@@@   ***===========================",
"####################################@@@   ***===========================",
"####################################@@@   ***===========================",
"#################################@@@...$$$***===========================",
"#################################@@@...$$$***===========================",
"#################################@@@...$$$***===========================",
"##############################@@@...   $$$***===========================",
"##############################@@@...   $$$***===========================",
"##############################@@@...   $$$***===========================",
"######@@@###########################   %%%***===========================",
"######@@@###########################   %%%***===========================",
"######@@@###########################   %%%***===========================",
"######...#########...###############   %%%***===========================",
"######...#########...###############   %%%***===========================",
"######...#########...###############   %%%***===========================",
"@@@###...   @@@###   ############   XXX%%%***===========================",
"@@@###...   @@@###   ############   XXX%%%***===========================",
"@@@###...   @@@###   ############   XXX%%%***===========================",
"...@@@         @@@   @@@###      XXXXXX%%%***===========================",
"...@@@         @@@   @@@###      XXXXXX%%%***===========================",
"...@@@         @@@   @@@###      XXXXXX%%%***===========================",
"   ...   XXX...   ...      XXXXXXoooXXX%%%***===========================",
"   ...   XXX...   ...      XXXXXXoooXXX%%%***===========================",
"   ...   XXX...   ...      XXXXXXoooXXX%%%***===========================",
"XXXXXXXXXXXXooooooooooooooooooOOOOOOooo%%%***===========================",
"XXXXXXXXXXXXooooooooooooooooooOOOOOOooo%%%***===========================",
"XXXXXXXXXXXXooooooooooooooooooOOOOOOooo%%%***===========================",
"OOO++++++++++++OOOOOOOOOOOOoooOOOoooooo%%%***===========================",
"OOO++++++++++++OOOOOOOOOOOOoooOOOoooooo%%%***===========================",
"OOO++++++++++++OOOOOOOOOOOOoooOOOoooooo%%%***===========================",
"OOOOOO+++++++++OOOOOOOOOOOOooooooooo$$$&&&***===========================",
"OOOOOO+++++++++OOOOOOOOOOOOooooooooo$$$&&&***===========================",
"OOOOOO+++++++++OOOOOOOOOOOOooooooooo$$$&&&***===========================",
"$$$&&&OOOoooooooooOOO&&&$$$$$$$$$%%%&&&&&&==============================",
"$$$&&&OOOoooooooooOOO&&&$$$$$$$$$%%%&&&&&&==============================",
"$$$&&&OOOoooooooooOOO&&&$$$$$$$$$%%%&&&&&&==============================",
"&&&%%%%%%$$$$$$$$$%%%%%%&&&&&&&&&&&&&&&=================================",
"&&&%%%%%%$$$$$$$$$%%%%%%&&&&&&&&&&&&&&&=================================",
"&&&%%%%%%$$$$$$$$$%%%%%%&&&&&&&&&&&&&&&=================================",
"&&&&&&&&&&&&&&&&&&&&&&&&&&&&&&&&&&&&====================================",
"&&&&&&&&&&&&&&&&&&&&&&&&&&&&&&&&&&&&====================================",
"&&&&&&&&&&&&&&&&&&&&&&&&&&&&&&&&&&&&====================================",
"*********************************=======================================",
"*********************************=======================================",
"*********************************=======================================",
"========================================================================",
"========================================================================",
"========================================================================",
"========================================================================",
"========================================================================",
"========================================================================",
"========================================================================",
"========================================================================",
"========================================================================",
"========================================================================",
"========================================================================",
"========================================================================",
"========================================================================",
"========================================================================",
"========================================================================",
"========================================================================",
"========================================================================",
"========================================================================",
"========================================================================",
"========================================================================",
"========================================================================",
"========================================================================",
"========================================================================",
"========================================================================"
};
