/* XPM */
static char *rcp1648453228588[] = {
/* columns rows colors chars-per-pixel */
"72 72 9 1 ",
"  c #34555D",
". c #396659",
"X c #37854E",
"o c #479757",
"O c #2A709B",
"+ c #2987A6",
"@ c #3690AE",
"# c #369AB0",
"$ c #3CA3B2",
/* pixels */
"$$$$$$$$$$$$$$$$$$$$$$$$$$$$$$$$$$$$$$$$$$$$$$$$$$$$$$$$$$$$$$$$$$$$$$$$",
"$$$$$$$$$$$$$$$$$$$$$$$$$$$$$$$$$$$$$$$$$$$$$$$$$$$$$$$$$$$$$$$$$$$$$$$$",
"$$$$$$$$$$$$$$$$$$$$$$$$$$$$$$$$$$$$$$$$$$$$$$$$$$$$$$$$$$$$$$$$$$$$$$$$",
"$$$$$$$$$$$$$$$$$$$$$$$$$$$$$$$$$$$$$$$$$$$$$$$$$$$$$$$$$$$$$$$$$$$$$$$$",
"$$$$$$$$$$$$$$$$$$$$$$$$$$$$$$$$$$$$$$$$$$$$$$$$$$$$$$$$$$$$$$$$$$$$$$$$",
"$$$$$$$$$$$$$$$$$$$$$$$$$$$$$$$$$$$$$$$$$$$$$$$$$$$$$$$$$$$$$$$$$$$$$$$$",
"$$$$$$$$$$$$$$$$$$$$$$$$$$$$$$$$$$$$$$$$$$$$$$$$$$$$$$$$$$$$$$$$$$$$$$$$",
"$$$$$$$$$$$$$$$$$$$$$$$$$$$$$$$$$$$$$$$$$$$$$$$$$$$$$$$$$$$$$$$$$$$$$$$$",
"$$$$$$$$$$$$$$$$$$$$$$$$$$$$$$$$$$$$$$$$$$$$$$$$$$$$$$$$$$$$$$$$$$$$$$$$",
"$$$$$$$$$$$$$$$$$$$$$$$$$$$$$$$$$$$$$$$$$$$$$$$$$$$$$$$$$$$$$$$$$$$$$$$$",
"$$$$$$$$$$$$$$$$$$$$$$$$$$$$$$$$$$$$$$$$$$$$$$$$$$$$$$$$$$$$$$$$$$$$$$$$",
"$$$$$$$$$$$$$$$$$$$$$$$$$$$$$$$$$$$$$$$$$$$$$$$$$$$$$$$$$$$$$$$$$$$$$$$$",
"$$$$$$$$$$$$$$$$$$$$$$$$$$$$$$$$$$$$$$$$$$$$$$$$$$$$$$$$$$$$$$$$$$$$$$$$",
"$$$$$$$$$$$$$$$$$$$$$$$$$$$$$$$$$$$$$$$$$$$$$$$$$$$$$$$$$$$$$$$$$$$$$$$$",
"$$$$$$$$$$$$$$$$$$$$$$$$$$$$$$$$$$$$$$$$$$$$$$$$$$$$$$$$$$$$$$$$$$$$$$$$",
"$$$$$$$$$$$$$$$$$$$$$$$$$$$$$$$$$$$$$$$$$$$$$$$$$$$$$$$$$$$$$$$$$$$$$$$$",
"$$$$$$$$$$$$$$$$$$$$$$$$$$$$$$$$$$$$$$$$$$$$$$$$$$$$$$$$$$$$$$$$$$$$$$$$",
"$$$$$$$$$$$$$$$$$$$$$$$$$$$$$$$$$$$$$$$$$$$$$$$$$$$$$$$$$$$$$$$$$$$$$$$$",
"$$$$$$$$$$$$$$$$$$$$$$$$$$$$$$$$$$$$$$$$$$$$$$$$$$$$$$$$$$$$$$$$$$$$$$$$",
"$$$$$$$$$$$$$$$$$$$$$$$$$$$$$$$$$$$$$$$$$$$$$$$$$$$$$$$$$$$$$$$$$$$$$$$$",
"$$$$$$$$$$$$$$$$$$$$$$$$$$$$$$$$$$$$$$$$$$$$$$$$$$$$$$$$$$$$$$$$$$$$$$$$",
"$$$$$$$$$$$$$$$$$$$$$$$$$$$$$$$$$$$$$$$$$$$$$$$$$$$$$$$$$$$$$$$$$$$$$$$$",
"$$$$$$$$$$$$$$$$$$$$$$$$$$$$$$$$$$$$$$$$$$$$$$$$$$$$$$$$$$$$$$$$$$$$$$$$",
"$$$$$$$$$$$$$$$$$$$$$$$$$$$$$$$$$$$$$$$$$$$$$$$$$$$$$$$$$$$$$$$$$$$$$$$$",
"$$$$$$$$$$$$$$$$$$$$$$$$$$$$$$$$$$$$$$$$$$$$$$$$$$$$$$$$$$$$$$$$$$$$$$$$",
"$$$$$$$$$$$$$$$$$$$$$$$$$$$$$$$$$$$$$$$$$$$$$$$$$$$$$$$$$$$$$$$$$$$$$$$$",
"$$$$$$$$$$$$$$$$$$$$$$$$$$$$$$$$$$$$$$$$$$$$$$$$$$$$$$$$$$$$$$$$$$$$$$$$",
"$$$$$$$$$$$$$$$$$$$$$$$$$$$$$$##########################################",
"$$$$$$$$$$$$$$$$$$$$$$$$$$$$$$##########################################",
"$$$$$$$$$$$$$$$$$$$$$$$$$$$$$$##########################################",
"$$$$$$$$$$$$$$$$$$$$$$$$$$$$$$############@@@@@@@@@@@@@@@@@@@@@@@@@@@@@@",
"$$$$$$$$$$$$$$$$$$$$$$$$$$$$$$############@@@@@@@@@@@@@@@@@@@@@@@@@@@@@@",
"$$$$$$$$$$$$$$$$$$$$$$$$$$$$$$############@@@@@@@@@@@@@@@@@@@@@@@@@@@@@@",
"$$$$$$$$$$$$$$$$$$$$$$$$$$$#########@@@+++OOO      ...+++      ...+++   ",
"$$$$$$$$$$$$$$$$$$$$$$$$$$$#########@@@+++OOO      ...+++      ...+++   ",
"$$$$$$$$$$$$$$$$$$$$$$$$$$$#########@@@+++OOO      ...+++      ...+++   ",
"$$$$$$$$$$$$$$$$$$$$$$$$$$$######@@@OOO      oooXXX      oooXXX         ",
"$$$$$$$$$$$$$$$$$$$$$$$$$$$######@@@OOO      oooXXX      oooXXX         ",
"$$$$$$$$$$$$$$$$$$$$$$$$$$$######@@@OOO      oooXXX      oooXXX         ",
"$$$$$$$$$$$$$$$$$$$$$$$$$$$######OOO   oooooooooooo   XXXooooooXXX   ...",
"$$$$$$$$$$$$$$$$$$$$$$$$$$$######OOO   oooooooooooo   XXXooooooXXX   ...",
"$$$$$$$$$$$$$$$$$$$$$$$$$$$######OOO   oooooooooooo   XXXooooooXXX   ...",
"$$$$$$$$$$$$$$$$$$$$$$$$$$$###@@@   ooooooooooooooo...ooooooooooooooo...",
"$$$$$$$$$$$$$$$$$$$$$$$$$$$###@@@   ooooooooooooooo...ooooooooooooooo...",
"$$$$$$$$$$$$$$$$$$$$$$$$$$$###@@@   ooooooooooooooo...ooooooooooooooo...",
"$$$$$$$$$$$$$$$$$$$$$$$$$$$###+++   oooooooooooooooooooooooooooooooooXXX",
"$$$$$$$$$$$$$$$$$$$$$$$$$$$###+++   oooooooooooooooooooooooooooooooooXXX",
"$$$$$$$$$$$$$$$$$$$$$$$$$$$###+++   oooooooooooooooooooooooooooooooooXXX",
"$$$$$$$$$$$$$$$$$$$$$$$$$$$###OOO   ...XXXoooooooooooooooooooooooooooooo",
"$$$$$$$$$$$$$$$$$$$$$$$$$$$###OOO   ...XXXoooooooooooooooooooooooooooooo",
"$$$$$$$$$$$$$$$$$$$$$$$$$$$###OOO   ...XXXoooooooooooooooooooooooooooooo",
"$$$$$$$$$$$$$$$$$$$$$$$$$$$###   ...oooooooooooooooooooooooooooooooooooo",
"$$$$$$$$$$$$$$$$$$$$$$$$$$$###   ...oooooooooooooooooooooooooooooooooooo",
"$$$$$$$$$$$$$$$$$$$$$$$$$$$###   ...oooooooooooooooooooooooooooooooooooo",
"$$$$$$$$$$$$$$$$$$$$$$$$$$$###   XXXoooooooooooooooooooooooooooooooooooo",
"$$$$$$$$$$$$$$$$$$$$$$$$$$$###   XXXoooooooooooooooooooooooooooooooooooo",
"$$$$$$$$$$$$$$$$$$$$$$$$$$$###   XXXoooooooooooooooooooooooooooooooooooo",
"$$$$$$$$$$$$$$$$$$$$$$$$$$$###   ooooooooooooooooooooooooooooooooooooooo",
"$$$$$$$$$$$$$$$$$$$$$$$$$$$###   ooooooooooooooooooooooooooooooooooooooo",
"$$$$$$$$$$$$$$$$$$$$$$$$$$$###   ooooooooooooooooooooooooooooooooooooooo",
"$$$$$$$$$$$$$$$$$$$$$$$$$$$###OOO...XXXooooooooooooooooooooooooooooooooo",
"$$$$$$$$$$$$$$$$$$$$$$$$$$$###OOO...XXXooooooooooooooooooooooooooooooooo",
"$$$$$$$$$$$$$$$$$$$$$$$$$$$###OOO...XXXooooooooooooooooooooooooooooooooo",
"$$$$$$$$$$$$$$$$$$$$$$$$$$$###   XXXoooooooooooooooooooooooooooooooooooo",
"$$$$$$$$$$$$$$$$$$$$$$$$$$$###   XXXoooooooooooooooooooooooooooooooooooo",
"$$$$$$$$$$$$$$$$$$$$$$$$$$$###   XXXoooooooooooooooooooooooooooooooooooo",
"$$$$$$$$$$$$$$$$$$$$$$$$$$$###   ooooooooooooooooooooooooooooooooooooooo",
"$$$$$$$$$$$$$$$$$$$$$$$$$$$###   ooooooooooooooooooooooooooooooooooooooo",
"$$$$$$$$$$$$$$$$$$$$$$$$$$$###   ooooooooooooooooooooooooooooooooooooooo",
"$$$$$$$$$$$$$$$$$$$$$$$$$$$###   ooooooooooooooooooooooooooooooooooooooo",
"$$$$$$$$$$$$$$$$$$$$$$$$$$$###   ooooooooooooooooooooooooooooooooooooooo",
"$$$$$$$$$$$$$$$$$$$$$$$$$$$###   ooooooooooooooooooooooooooooooooooooooo"
};
