/* XPM */
static char *rcp16470730794829[] = {
/* columns rows colors chars-per-pixel */
"72 72 9 1 ",
"  c #34555D",
". c #396659",
"X c #37854E",
"o c #479757",
"O c #2A709B",
"+ c #2987A6",
"@ c #3690AE",
"# c #369AB0",
"$ c #3CA3B2",
/* pixels */
"$$$$$$$$$$$$$$$$$$$$$$$$$$$$$$$$$$$$$$$$$$$$$$$$$$$$$$$$$$$$$$$$$$$$$$$$",
"$$$$$$$$$$$$$$$$$$$$$$$$$$$$$$$$$$$$$$$$$$$$$$$$$$$$$$$$$$$$$$$$$$$$$$$$",
"$$$$$$$$$$$$$$$$$$$$$$$$$$$$$$$$$$$$$$$$$$$$$$$$$$$$$$$$$$$$$$$$$$$$$$$$",
"$$$$$$$$$$$$$$$$$$$$$$$$$$$$$$$$$$$$$$$$$$$$$$$$$$$$$$$$$$$$$$$$$$$$$$$$",
"$$$$$$$$$$$$$$$$$$$$$$$$$$$$$$$$$$$$$$$$$$$$$$$$$$$$$$$$$$$$$$$$$$$$$$$$",
"$$$$$$$$$$$$$$$$$$$$$$$$$$$$$$$$$$$$$$$$$$$$$$$$$$$$$$$$$$$$$$$$$$$$$$$$",
"$$$$$$$$$$$$$$$$$$$$$$$$$$$$$$$$$$$$$$$$$$$$$$$$$$$$$$$$$$$$$$$$$$$$$$$$",
"$$$$$$$$$$$$$$$$$$$$$$$$$$$$$$$$$$$$$$$$$$$$$$$$$$$$$$$$$$$$$$$$$$$$$$$$",
"$$$$$$$$$$$$$$$$$$$$$$$$$$$$$$$$$$$$$$$$$$$$$$$$$$$$$$$$$$$$$$$$$$$$$$$$",
"$$$$$$$$$$$$$$$$$$$$$$$$$$$$$$$$$$$$$$$$$$$$$$$$$$$$$$$$$$$$$$$$$$$$$$$$",
"$$$$$$$$$$$$$$$$$$$$$$$$$$$$$$$$$$$$$$$$$$$$$$$$$$$$$$$$$$$$$$$$$$$$$$$$",
"$$$$$$$$$$$$$$$$$$$$$$$$$$$$$$$$$$$$$$$$$$$$$$$$$$$$$$$$$$$$$$$$$$$$$$$$",
"$$$$$$$$$$$$$$$$$$$$$$$$$$$$$$$$$$$$$$$$$$$$$$$$$$$$$$$$$$$$$$$$$$$$$$$$",
"$$$$$$$$$$$$$$$$$$$$$$$$$$$$$$$$$$$$$$$$$$$$$$$$$$$$$$$$$$$$$$$$$$$$$$$$",
"$$$$$$$$$$$$$$$$$$$$$$$$$$$$$$$$$$$$$$$$$$$$$$$$$$$$$$$$$$$$$$$$$$$$$$$$",
"$$$$$$$$$$$$$$$$$$$$$$$$$$$$$$$$$$$$$$$$$$$$$$$$$$$$$$$$$$$$$$$$$$$$$$$$",
"$$$$$$$$$$$$$$$$$$$$$$$$$$$$$$$$$$$$$$$$$$$$$$$$$$$$$$$$$$$$$$$$$$$$$$$$",
"$$$$$$$$$$$$$$$$$$$$$$$$$$$$$$$$$$$$$$$$$$$$$$$$$$$$$$$$$$$$$$$$$$$$$$$$",
"$$$$$$$$$$$$$$$$$$$$$$$$$$$$$$$$$$$$$$$$$$$$$$$$$$$$$$$$$$$$$$$$$$$$$$$$",
"$$$$$$$$$$$$$$$$$$$$$$$$$$$$$$$$$$$$$$$$$$$$$$$$$$$$$$$$$$$$$$$$$$$$$$$$",
"$$$$$$$$$$$$$$$$$$$$$$$$$$$$$$$$$$$$$$$$$$$$$$$$$$$$$$$$$$$$$$$$$$$$$$$$",
"$$$$$$$$$$$$$$$$$$$$$$$$$$$$$$$$$$$$$$$$$$$$$$$$$$$$$$$$$$$$$$$$$$$$$$$$",
"$$$$$$$$$$$$$$$$$$$$$$$$$$$$$$$$$$$$$$$$$$$$$$$$$$$$$$$$$$$$$$$$$$$$$$$$",
"$$$$$$$$$$$$$$$$$$$$$$$$$$$$$$$$$$$$$$$$$$$$$$$$$$$$$$$$$$$$$$$$$$$$$$$$",
"$$$$$$$$$$$$$$$$$$$$$$$$$$$$$$$$$$$$$$$$$$$$$$$$$$$$$$$$$$$$$$$$$$$$$$$$",
"$$$$$$$$$$$$$$$$$$$$$$$$$$$$$$$$$$$$$$$$$$$$$$$$$$$$$$$$$$$$$$$$$$$$$$$$",
"$$$$$$$$$$$$$$$$$$$$$$$$$$$$$$$$$$$$$$$$$$$$$$$$$$$$$$$$$$$$$$$$$$$$$$$$",
"##########################################$$$$$$$$$$$$$$$$$$$$$$$$$$$$$$",
"##########################################$$$$$$$$$$$$$$$$$$$$$$$$$$$$$$",
"##########################################$$$$$$$$$$$$$$$$$$$$$$$$$$$$$$",
"@@@@@@@@@@@@@@@@@@@@@@@@@@@@@@############$$$$$$$$$$$$$$$$$$$$$$$$$$$$$$",
"@@@@@@@@@@@@@@@@@@@@@@@@@@@@@@############$$$$$$$$$$$$$$$$$$$$$$$$$$$$$$",
"@@@@@@@@@@@@@@@@@@@@@@@@@@@@@@############$$$$$$$$$$$$$$$$$$$$$$$$$$$$$$",
"   ...   +++...   ...      OOO+++@@@#########$$$$$$$$$$$$$$$$$$$$$$$$$$$",
"   ...   +++...   ...      OOO+++@@@#########$$$$$$$$$$$$$$$$$$$$$$$$$$$",
"   ...   +++...   ...      OOO+++@@@#########$$$$$$$$$$$$$$$$$$$$$$$$$$$",
"...XXX         XXX   XXXooo      OOO+++######$$$$$$$$$$$$$$$$$$$$$$$$$$$",
"...XXX         XXX   XXXooo      OOO+++######$$$$$$$$$$$$$$$$$$$$$$$$$$$",
"...XXX         XXX   XXXooo      OOO+++######$$$$$$$$$$$$$$$$$$$$$$$$$$$",
"XXXooo...   XXXooo...oooooooooooo   OOO@@@###$$$$$$$$$$$$$$$$$$$$$$$$$$$",
"XXXooo...   XXXooo...oooooooooooo   OOO@@@###$$$$$$$$$$$$$$$$$$$$$$$$$$$",
"XXXooo...   XXXooo...oooooooooooo   OOO@@@###$$$$$$$$$$$$$$$$$$$$$$$$$$$",
"oooooo...ooooooooooooooooooooooooooo   +++###$$$$$$$$$$$$$$$$$$$$$$$$$$$",
"oooooo...ooooooooooooooooooooooooooo   +++###$$$$$$$$$$$$$$$$$$$$$$$$$$$",
"oooooo...ooooooooooooooooooooooooooo   +++###$$$$$$$$$$$$$$$$$$$$$$$$$$$",
"ooooooXXXooooooooooooooooooooooooooo   OOO###$$$$$$$$$$$$$$$$$$$$$$$$$$$",
"ooooooXXXooooooooooooooooooooooooooo   OOO###$$$$$$$$$$$$$$$$$$$$$$$$$$$",
"ooooooXXXooooooooooooooooooooooooooo   OOO###$$$$$$$$$$$$$$$$$$$$$$$$$$$",
"ooooooooooooooooooooooooooooooXXX...   ...###$$$$$$$$$$$$$$$$$$$$$$$$$$$",
"ooooooooooooooooooooooooooooooXXX...   ...###$$$$$$$$$$$$$$$$$$$$$$$$$$$",
"ooooooooooooooooooooooooooooooXXX...   ...###$$$$$$$$$$$$$$$$$$$$$$$$$$$",
"oooooooooooooooooooooooooooooooooooo...   ###$$$$$$$$$$$$$$$$$$$$$$$$$$$",
"oooooooooooooooooooooooooooooooooooo...   ###$$$$$$$$$$$$$$$$$$$$$$$$$$$",
"oooooooooooooooooooooooooooooooooooo...   ###$$$$$$$$$$$$$$$$$$$$$$$$$$$",
"ooooooooooooooooooooooooooooooooooooXXX   ###$$$$$$$$$$$$$$$$$$$$$$$$$$$",
"ooooooooooooooooooooooooooooooooooooXXX   ###$$$$$$$$$$$$$$$$$$$$$$$$$$$",
"ooooooooooooooooooooooooooooooooooooXXX   ###$$$$$$$$$$$$$$$$$$$$$$$$$$$",
"ooooooooooooooooooooooooooooooooooooooo   ###$$$$$$$$$$$$$$$$$$$$$$$$$$$",
"ooooooooooooooooooooooooooooooooooooooo   ###$$$$$$$$$$$$$$$$$$$$$$$$$$$",
"ooooooooooooooooooooooooooooooooooooooo   ###$$$$$$$$$$$$$$$$$$$$$$$$$$$",
"oooooooooooooooooooooooooooooooooXXX...OOO###$$$$$$$$$$$$$$$$$$$$$$$$$$$",
"oooooooooooooooooooooooooooooooooXXX...OOO###$$$$$$$$$$$$$$$$$$$$$$$$$$$",
"oooooooooooooooooooooooooooooooooXXX...OOO###$$$$$$$$$$$$$$$$$$$$$$$$$$$",
"ooooooooooooooooooooooooooooooooooooXXX   ###$$$$$$$$$$$$$$$$$$$$$$$$$$$",
"ooooooooooooooooooooooooooooooooooooXXX   ###$$$$$$$$$$$$$$$$$$$$$$$$$$$",
"ooooooooooooooooooooooooooooooooooooXXX   ###$$$$$$$$$$$$$$$$$$$$$$$$$$$",
"ooooooooooooooooooooooooooooooooooooooo   ###$$$$$$$$$$$$$$$$$$$$$$$$$$$",
"ooooooooooooooooooooooooooooooooooooooo   ###$$$$$$$$$$$$$$$$$$$$$$$$$$$",
"ooooooooooooooooooooooooooooooooooooooo   ###$$$$$$$$$$$$$$$$$$$$$$$$$$$",
"oooooooooooooooooooooooooooooooooooo...OOO###$$$$$$$$$$$$$$$$$$$$$$$$$$$",
"oooooooooooooooooooooooooooooooooooo...OOO###$$$$$$$$$$$$$$$$$$$$$$$$$$$",
"oooooooooooooooooooooooooooooooooooo...OOO###$$$$$$$$$$$$$$$$$$$$$$$$$$$"
};
