/* XPM */
static char *rcp16464691686218[] = {
/* columns rows colors chars-per-pixel */
"72 72 8 1 ",
"  c #34555D",
". c #396659",
"X c #37854E",
"o c #479757",
"O c #2A709B",
"+ c #2987A6",
"@ c #369AB0",
"# c #3CA3B2",
/* pixels */
"###########################@@@OOO...XXXooooooooooooooooooooooooooooooooo",
"###########################@@@OOO...XXXooooooooooooooooooooooooooooooooo",
"###########################@@@OOO...XXXooooooooooooooooooooooooooooooooo",
"###########################@@@   XXXoooooooooooooooooooooooooooooooooooo",
"###########################@@@   XXXoooooooooooooooooooooooooooooooooooo",
"###########################@@@   XXXoooooooooooooooooooooooooooooooooooo",
"###########################@@@   ooooooooooooooooooooooooooooooooooooooo",
"###########################@@@   ooooooooooooooooooooooooooooooooooooooo",
"###########################@@@   ooooooooooooooooooooooooooooooooooooooo",
"###########################@@@   ooooooooooooooooooooooooooooooooooooooo",
"###########################@@@   ooooooooooooooooooooooooooooooooooooooo",
"###########################@@@   ooooooooooooooooooooooooooooooooooooooo",
"###########################@@@......oooooooooooooooooooooooooooooooooooo",
"###########################@@@......oooooooooooooooooooooooooooooooooooo",
"###########################@@@......oooooooooooooooooooooooooooooooooooo",
"###########################@@@OOO......ooooooooooooooooooooooooooooooooo",
"###########################@@@OOO......ooooooooooooooooooooooooooooooooo",
"###########################@@@OOO......ooooooooooooooooooooooooooooooooo",
"###########################@@@OOO...oooooooooooooooooooooooooooooooooooo",
"###########################@@@OOO...oooooooooooooooooooooooooooooooooooo",
"###########################@@@OOO...oooooooooooooooooooooooooooooooooooo",
"###########################@@@   ...XXXXXXoooooooooooooooooooooooooooooo",
"###########################@@@   ...XXXXXXoooooooooooooooooooooooooooooo",
"###########################@@@   ...XXXXXXoooooooooooooooooooooooooooooo",
"###########################@@@   ...oooooooooooooooooooooooooooooooooooo",
"###########################@@@   ...oooooooooooooooooooooooooooooooooooo",
"###########################@@@   ...oooooooooooooooooooooooooooooooooooo",
"###########################@@@OOOooooooooooooooooooooooooooooooooooooooo",
"###########################@@@OOOooooooooooooooooooooooooooooooooooooooo",
"###########################@@@OOOooooooooooooooooooooooooooooooooooooooo",
"###########################@@@   XXXoooooooooooooooooooooooooooooooooooo",
"###########################@@@   XXXoooooooooooooooooooooooooooooooooooo",
"###########################@@@   XXXoooooooooooooooooooooooooooooooooooo",
"###########################@@@............XXXooooooooooooooooooooooooooo",
"###########################@@@............XXXooooooooooooooooooooooooooo",
"###########################@@@............XXXooooooooooooooooooooooooooo",
"###########################@@@OOO   XXXooooooooooooooooooooooooooooooooo",
"###########################@@@OOO   XXXooooooooooooooooooooooooooooooooo",
"###########################@@@OOO   XXXooooooooooooooooooooooooooooooooo",
"###########################@@@   ooooooooooooooooooooooooooooooooooooooo",
"###########################@@@   ooooooooooooooooooooooooooooooooooooooo",
"###########################@@@   ooooooooooooooooooooooooooooooooooooooo",
"###########################@@@   XXXoooooooooooooooooooooooooooooooooooo",
"###########################@@@   XXXoooooooooooooooooooooooooooooooooooo",
"###########################@@@   XXXoooooooooooooooooooooooooooooooooooo",
"###########################@@@OOO...XXXooooooooooooooooooooooooooooooooo",
"###########################@@@OOO...XXXooooooooooooooooooooooooooooooooo",
"###########################@@@OOO...XXXooooooooooooooooooooooooooooooooo",
"###########################@@@   ooooooooooooooooooooooooooooooooooooooo",
"###########################@@@   ooooooooooooooooooooooooooooooooooooooo",
"###########################@@@   ooooooooooooooooooooooooooooooooooooooo",
"###########################@@@   XXXoooooooooooooooooooooooooooooooooooo",
"###########################@@@   XXXoooooooooooooooooooooooooooooooooooo",
"###########################@@@   XXXoooooooooooooooooooooooooooooooooooo",
"###########################@@@   ...oooooooooooooooooooooooooooooooooooo",
"###########################@@@   ...oooooooooooooooooooooooooooooooooooo",
"###########################@@@   ...oooooooooooooooooooooooooooooooooooo",
"###########################@@@OOO   ...XXXoooooooooooooooooooooooooooooo",
"###########################@@@OOO   ...XXXoooooooooooooooooooooooooooooo",
"###########################@@@OOO   ...XXXoooooooooooooooooooooooooooooo",
"###########################@@@+++...oooooooooooooooooooooooooooooooooooo",
"###########################@@@+++...oooooooooooooooooooooooooooooooooooo",
"###########################@@@+++...oooooooooooooooooooooooooooooooooooo",
"###########################@@@   ooooooooooooooooooooooooooooooooooooooo",
"###########################@@@   ooooooooooooooooooooooooooooooooooooooo",
"###########################@@@   ooooooooooooooooooooooooooooooooooooooo",
"###########################@@@.........XXXoooooooooooooooooooooooooooooo",
"###########################@@@.........XXXoooooooooooooooooooooooooooooo",
"###########################@@@.........XXXoooooooooooooooooooooooooooooo",
"###########################@@@OOO   XXXooooooooooooooooooooooooooooooooo",
"###########################@@@OOO   XXXooooooooooooooooooooooooooooooooo",
"###########################@@@OOO   XXXooooooooooooooooooooooooooooooooo"
};
