/* XPM */
static char *rcp06290672850[] = {
/* columns rows colors chars-per-pixel */
"72 72 66 1 ",
"  c #479757",
". c #46465E",
"X c #46485E",
"o c #46475E",
"O c #93BF49",
"+ c #98C147",
"@ c #95C048",
"# c #96C048",
"$ c #74B453",
"% c #74B553",
"& c #97C147",
"* c #479657",
"= c #73B453",
"- c #464B5E",
"; c #97C047",
": c #74B353",
"> c #46465D",
", c #579A61",
"< c #549862",
"1 c #549962",
"2 c #73B353",
"3 c #63A650",
"4 c #569961",
"5 c #64A750",
"6 c #75B453",
"7 c white",
"8 c #3A3A50",
"9 c #FDFEFD",
"0 c #3C3C52",
"q c #3B3B51",
"w c #964206",
"e c #94470A",
"r c #964307",
"t c #94480A",
"y c #915412",
"u c #65A750",
"i c #602A07",
"p c #954609",
"a c #45455D",
"s c #944A0B",
"d c #602B07",
"f c #954508",
"g c #964306",
"h c #65A850",
"j c #4380DB",
"k c #4280DD",
"l c #487ED4",
"z c #497ED3",
"x c #4380DC",
"c c #497ED4",
"v c #5493D7",
"b c #4995E3",
"n c #4D94DE",
"m c #4A95E2",
"M c #529760",
"N c #4A445E",
"B c #47465E",
"V c #4280DC",
"C c #4A7ED2",
"Z c #AE6046",
"A c #B35E3F",
"S c #5C4A44",
"D c #C47C5C",
"F c #C37C5D",
"G c #C27D5E",
"H c #AC6049",
/* pixels */
"                                                                        ",
"                                                                        ",
"                                                                        ",
"                            ...........X                                ",
"                            ............                                ",
"                            ...........o                                ",
"                         ...O+@+++++#$$%.....o                          ",
"                         ...++++@++++$$$......                          ",
"                         ...+@&+@@+++$$$......     *                    ",
"                      ...++&$$$$$$$$$$$$$$$$$=..-                       ",
"                      ...+++$$$$$$$$$$$$$$$$$$...                       ",
"                      ...;++$$$$$$$$$$$$:$$$$$...                       ",
"                   >..$$$$$$$$$$$$$$$$$$$$$$$$,<1...                    ",
"                   ...$$$$$$$$$$$$$$$$$$$$$$$$<<<...                    ",
"                   ...$$$$$2$$$$$$$$$$$$$$$$$$<<<...                    ",
"                ...333333$$$$$$$$$$$$$$$$$$<<4$$$$=2...                 ",
"                ...333333$$$$$$$$$$$$$$$$$$<<<$$$$$$...                 ",
"                ...335333$$$$$$$$$$$$$$$$$$<<<$$$$$$...                 ",
"                ...333$$$$$$$$$$$$$6$$$$$$$$$$777888..o                 ",
"                ...333$$$$$$$$$$$$$$$$$$$$$$$$777888...                 ",
"                ...333$$$$$$$$$$$$$$$$$$$$$$$$777888...                 ",
"                ...$$$$$$$$$$$$$$$$$$$$$$$$333777888...                 ",
"                ...$$$$$$$$$$$$$$$$$$$$$$$$333777888...                 ",
"                ...$$$$$$$$$$$$$$$$$$$$$$$$33377980q...                 ",
"                ...$$$$$$$$$$$$$$$$$$$$$$$$$$$$$$$$$...                 ",
"                ...$$$$$$$$$$$$$$$$$$$$$$$$$$$$$%$$$...                 ",
"                ...$$$$$$$$$$$$$$$$$$$$$$$$$$$$$$$$$o.o                 ",
"                ...333$$$$$$$$$$$$$$$$$$wwwwwe$$$333...                 ",
"                ...333$$$$$$$$$$$$$$$$$$wrwwww$$$333...                 ",
"                ...333$$$$$$$$$$$$$$$$$$wwwwty$$$33u...                 ",
"                ...333533$$$$$$$$$$$$$$$wwriiiwwpwww...                 ",
"                ...333333$$$$$$$$$$$$$$$wrwiiiwwwwww...                 ",
"                ..a533333$$$$$$$$$$$$$$$wwwiiiwwwwsr...                 ",
"                   ...333333$$$$$$$$$$$$$$$rwpdiiiii...                 ",
"                   ...333333$$$$$$$$$$$$$$$wwwiiiiii...                 ",
"                   .o.333333$$$$$$$$$$$$$$$fwwiiiiii...                 ",
"                   ...333333333$$$$$$$$$$$$333gwrwww...                 ",
"                   ...333333333$$$$$$$$$$$$333wwwwww...                 ",
"                   ...333333333$$$$$$$$$$$$333twwwwp...                 ",
"                      ...333333335335$$$$$$$$$333...                    ",
"                      ...333333333333$$$$$$$$$333...                    ",
"                      ...333333333h33$$$$$$$$$333...                    ",
"                         ........................                       ",
"                         ........................                       ",
"                         a.......................                       ",
"                         888jkj888lzkkkx...kkk...                       ",
"                         888kkk888kkkkkk...kkk...                       ",
"                         888kkk888ckkkkx...kkk...                       ",
"                         888kkk888vbb...$$$$$$...                       ",
"                         888kkk888bbb...$$$$$$...                       ",
"                         888kkk888nvm...$$$$$$...                       ",
"                         888kkk888xkk...MMM$$$...                       ",
"                         888kkk888kkk...MMM$$$...                       ",
"                         888kkk888xxk...MMM$$$NB.                       ",
"                         888kkkVkx888888......888...                    ",
"                         888kkkkkk888888......888...                    ",
"                         888kkkkCz888888......888...                    ",
"                         888888......ZAAAAAAAAAAASSS888                 ",
"                         888888......AAAAAAAAAAAASSS888                 ",
"                         888888......AAAAAAAAAAAASSS888                 ",
"                      ...SSSDDDDDFAAAAAAAAAAAASSSSSS888                 ",
"                      ...SSSDDDDDDAAAAAAAAAAAASSSSSS888                 ",
"                      ...SSSDDDDDGHAAAAAAAAAAASSSSSS888                 ",
"                      888SSSSSS............888888888                    ",
"                      888SSSSSS............888888888                    ",
"                      888SSSSSS............888888888                    ",
"                         888888                                         ",
"                         888888                                         ",
"                         888888                                         ",
"                                                                        ",
"                                                                        ",
"                                                                        "
};
