/* XPM */
static char *rcp06432611962477[] = {
/* columns rows colors chars-per-pixel */
"72 72 73 1 ",
"  c #479757",
". c #46465E",
"X c #DD8D03",
"o c #E28D00",
"O c #DB8D04",
"+ c #D98E05",
"@ c #489758",
"# c #DF8C01",
"$ c #4E9A5B",
"% c #E18E00",
"& c #E18D01",
"* c #E18D00",
"= c #46475D",
"- c #DC8A03",
"; c #DF8C02",
": c #E18C00",
"> c #464C5D",
", c #E38D00",
"< c #E28C00",
"1 c #E08D01",
"2 c #E38E00",
"3 c #E39007",
"4 c #E39006",
"5 c #46475E",
"6 c #E28E02",
"7 c #E28D01",
"8 c #E28E00",
"9 c #46485E",
"0 c #F4B251",
"q c #F4B14F",
"w c #45485E",
"e c #F3AF4A",
"r c #F2AD46",
"t c #F3AF4B",
"y c #F4B250",
"u c #F3B04D",
"i c #479058",
"p c #E28E01",
"a c #479657",
"s c #E28E03",
"d c #F2AF4C",
"f c #F1AF4B",
"g c #47485E",
"h c #47475E",
"j c #E18E01",
"k c #F3B14D",
"l c #DD8D04",
"z c #DE8D03",
"x c #E08D02",
"c c #FEE7B7",
"v c #FFE7B6",
"b c #E18D02",
"n c #D68E08",
"m c #F4B759",
"M c #F5B75B",
"N c #F5B659",
"B c #F2AE49",
"V c #E38F05",
"C c #FFE7B5",
"Z c #FFE5B3",
"A c #D78E07",
"S c #FEE6B5",
"D c #F2E1AF",
"F c #FEE7B6",
"G c #FDE7B5",
"H c #E39108",
"J c #E38F04",
"K c #E28D02",
"L c #FFE6B5",
"P c #46465D",
"I c #46465F",
"U c #FFE6B3",
"Y c #45455E",
/* pixels */
"                         ...               ...                          ",
"                         ...               ...                          ",
"                         ...               ...                          ",
"                      ...XoO...         ...oo+...                       ",
"                      ...ooo... @       ...ooo...                       ",
"                      ...#oo...$        ...o%o...                       ",
"                      ...ooo&o*=........*o-&oo...                       ",
"                      ...oooooo.........oooooo...                       ",
"                      ...ooo;o:.........oooooo...                       ",
"                   >..oooo,oooooooooooo<ooooo1oo*...                    ",
"                   ...ooooooo2ooooooooooooooooooo...                    ",
"                   ...oo<ooooooooooooo,oooooo&ooo...                    ",
"                   ...*oo&oooooooo*oooooo34oo%oo&5..                    ",
"                   ...ooooooooooooooooooooooooooo...                    ",
"                   ...oooooooooooooooooooooooo<o,...                    ",
"                ...ooooooooooooooo<oooooooooooooo6oo5..                 ",
"                ...ooooooooooooooooooooooooooooooooo...                 ",
"                ...o<oooooooooooooooooooooooooooo7oo...                 ",
"                ...ooooooooooooooooooooooooooooooooo...                 ",
"                ...ooooooooooooooooooooooooooooooooo...                 ",
"                ...8oooooooooooooooooooooooooooooooo...                 ",
"                9..00qooooooooooooooooooooooooooo000...                 ",
"                ...000ooooooooooooooooooooooooooo000...                 ",
"                59.000o7ooooooooooooooooooooooooo000w..                 ",
"                ...000ooooooooooooooooooooooooooo000..9                 ",
"                ...000ooooooooooooooooooooooooooo000...                 ",
"                5..er0oooooooooooooooooooooooooootq0...                 ",
"                   ...000ooooooooooooooooooooot00...                    ",
"                   ...000ooooooooooooooooooooo000...                    ",
"                   ...00qoooooooooooooooooooooyuy...                    ",
"                     i...oooooooooooooooooooop..5                       ",
"                      ...ooooooooooooooooooooo...                       ",
"                     a..97oooooooooooooo77ooos...                       ",
"                   ...d0f...777ooogh.ooo77j...k00...                    ",
"                   ...000...777ooo...ooo777...000...                    ",
"                   ...000g..777poo=..ooo777...000...                    ",
"                   ...000lzx777...cvv9..77777b000...                    ",
"                   ...000777777...vvv...777777000...                    ",
"                   ...000777777...vvv...nbn777000...                    ",
"                   ...000777...m0Mvvv000...777000...                    ",
"                   ...000777...000vvv000...777000...                    ",
"                   ...000777...000vvvN00...777000...                    ",
"                   ...000777...vvvvvvvvv...777000...                    ",
"                   ...00B777...vvvvvvvvv...777000...                    ",
"                   ...000777...vvvvvvvvv...777000...                    ",
"                   ...V77777..5Cvvvvvvvv...777777...                    ",
"                   ...777777...vvvvvvvvv...777777...                    ",
"                   ...777777...Zvvvvvvvv...777777...                    ",
"                   ...77777777A...Svv...777777777...                    ",
"                   ...777777777...vvv...777777777...                    ",
"                   ...j777777j7...DFv...j77777777...                    ",
"                   ...777777777774Gvv77HJ77777777...                    ",
"                   ...77777777777KvvvK77JJJJJJ77J...                    ",
"                   ...777777777777vvS777JJJJJJJJJ...                    ",
"                   ...777777vvv...5.....vvvJJJJJJ...                    ",
"                   ...777777vvv.........vvvJJJJJJ...                    ",
"                   ...777777Lvv.....P...vvvJJJJJJ...                    ",
"                   ...777777...         ...JJJJJJ9..                    ",
"                   ...777777...         ...JJJJJJ...                    ",
"                   ...777777...         ...JJJJJJ...                    ",
"                   ...777777...         P..vvvvvv...                    ",
"                   ...77&777...         ...vvvvvv...                    ",
"                   ..Ib777x7...         ...Uvvvvv...                    ",
"                   ...vvvvvv...         a a......                       ",
"                   ...vvvvvv...            ......                       ",
"                   ...vvvvvv...            h.....                       ",
"                      ..P..5                                            ",
"                      ......                                            ",
"                      ...Y..                                            ",
"                                                                        ",
"                                                                        ",
"                                                                        "
};
