/* XPM */
static char *rcp06431602572104[] = {
/* columns rows colors chars-per-pixel */
"72 72 73 1 ",
"  c #479757",
". c #46465E",
"X c #479657",
"o c #D98E05",
"O c #E28D00",
"+ c #DB8D04",
"@ c #DD8D03",
"# c #489758",
"$ c #E18E00",
"% c #4E9A5B",
"& c #DF8C01",
"* c #E18D01",
"= c #DC8A03",
"- c #E18D00",
"; c #46475D",
": c #E18C00",
"> c #DF8C02",
", c #E08D01",
"< c #E28C00",
"1 c #E38D00",
"2 c #464C5D",
"3 c #E38E00",
"4 c #46475E",
"5 c #E39006",
"6 c #E39007",
"7 c #E28E02",
"8 c #E28D01",
"9 c #E28E00",
"0 c #F4B251",
"q c #F4B14F",
"w c #46485E",
"e c #45485E",
"r c #F3AF4B",
"t c #F2AD46",
"y c #F3AF4A",
"u c #F4B250",
"i c #F3B04D",
"p c #E28E01",
"a c #479058",
"s c #E28E03",
"d c #F3B14D",
"f c #E18E01",
"g c #47475E",
"h c #47485E",
"j c #F1AF4B",
"k c #F2AF4C",
"l c #E18D02",
"z c #FFE7B6",
"x c #FEE7B7",
"c c #E08D02",
"v c #DE8D03",
"b c #DD8D04",
"n c #D68E08",
"m c #F5B75B",
"M c #F4B759",
"N c #F5B659",
"B c #F2AE49",
"V c #FFE7B5",
"C c #E38F05",
"Z c #FFE5B3",
"A c #FEE6B5",
"S c #D78E07",
"D c #FEE7B6",
"F c #F2E1AF",
"G c #E38F04",
"H c #E39108",
"J c #FDE7B5",
"K c #E28D02",
"L c #46465D",
"P c #FFE6B5",
"I c #FFE6B3",
"U c #46465F",
"Y c #45455E",
/* pixels */
"                         ...               ...                          ",
"                         ...               ...                          ",
"                         ...X              ...                          ",
"                      ...oOO...         ...+O@...                       ",
"                      ...OOO...       # ...OOO...                       ",
"                      ...O$O...        %...OO&...                       ",
"                      ...OO*=O-........;-O*OOO...                       ",
"                      ...OOOOOO.........OOOOOO...                       ",
"                      ...OOOOOO.........:O>OOO...                       ",
"                   ...-OO,OOOOO<OOOOOOOOOOOO1OOOO..2                    ",
"                   ...OOOOOOOOOOOOOOOOOOO3OOOOOOO...                    ",
"                   ...OOO*OOOOOO1OOOOOOOOOOOOO<OO...                    ",
"                   ..4*OO$OO56OOOOOO-OOOOOOOO*OO-...                    ",
"                   ...OOOOOOOOOOOOOOOOOOOOOOOOOOO...                    ",
"                   ...1O<OOOOOOOOOOOOOOOOOOOOOOOO...                    ",
"                ..4OO7OOOOOOOOOOOOOO<OOOOOOOOOOOOOOO...                 ",
"                ...OOOOOOOOOOOOOOOOOOOOOOOOOOOOOOOOO...                 ",
"                ...OO8OOOOOOOOOOOOOOOOOOOOOOOOOOOO<O...                 ",
"                ...OOOOOOOOOOOOOOOOOOOOOOOOOOOOOOOOO...                 ",
"                ...OOOOOOOOOOOOOOOOOOOOOOOOOOOOOOOOO...                 ",
"                ...OOOOOOOOOOOOOOOOOOOOOOOOOOOOOOOO9...                 ",
"                ...000OOOOOOOOOOOOOOOOOOOOOOOOOOOq00..w                 ",
"                ...000OOOOOOOOOOOOOOOOOOOOOOOOOOO000...                 ",
"                ..e000OOOOOOOOOOOOOOOOOOOOOOOOO8O000.w4                 ",
"                w..000OOOOOOOOOOOOOOOOOOOOOOOOOOO000...                 ",
"                ...000OOOOOOOOOOOOOOOOOOOOOOOOOOO000...                 ",
"                ...0qrOOOOOOOOOOOOOOOOOOOOOOOOOOO0ty..4                 ",
"                   ...00rOOOOOOOOOOOOOOOOOOOOO000...                    ",
"                   ...000OOOOOOOOOOOOOOOOOOOOO000...                    ",
"                   ...uiuOOOOOOOOOOOOOOOOOOOOOq00...                    ",
"                      4..pOOOOOOOOOOOOOOOOOOOO...a                      ",
"                      ...OOOOOOOOOOOOOOOOOOOOO...                       ",
"                      ...sOOO88OOOOOOOOOOOOOO8w..X                      ",
"                   ...00d...f88OOO.ghOOO888...j0k...                    ",
"                   ...000...888OOO...OOO888...000...                    ",
"                   ...000...888OOO..;OOp888..h000...                    ",
"                   ...000l88888..wzzx...888cvb000...                    ",
"                   ...000888888...zzz...888888000...                    ",
"                   ...000888nln...zzz...888888000...                    ",
"                   ...000888...000zzzm0M...888000...                    ",
"                   ...000888...000zzz000...888000...                    ",
"                   ...000888...00Nzzz000...888000...                    ",
"                   ...000888...zzzzzzzzz...888000...                    ",
"                   ...000888...zzzzzzzzz...888B00...                    ",
"                   ...000888...zzzzzzzzz...888000...                    ",
"                   ...888888...zzzzzzzzV4..88888C...                    ",
"                   ...888888...zzzzzzzzz...888888...                    ",
"                   ...888888...zzzzzzzzZ...888888...                    ",
"                   ...888888888...zzA...S88888888...                    ",
"                   ...888888888...zzz...888888888...                    ",
"                   ...88888888f...zDF...8f888888f...                    ",
"                   ...88888888GH88zzJ588888888888...                    ",
"                   ...G88GGGGGG88KzzzK88888888888...                    ",
"                   ...GGGGGGGGG888Azz888888888888...                    ",
"                   ...GGGGGGzzz.....4...zzz888888...                    ",
"                   ...GGGGGGzzz.........zzz888888...                    ",
"                   ...GGGGGGzzz...L.....zzP888888...                    ",
"                   ..wGGGGGG...         ...888888...                    ",
"                   ...GGGGGG...         ...888888...                    ",
"                   ...GGGGGG...         ...888888...                    ",
"                   ...zzzzzz..L         ...888888...                    ",
"                   ...zzzzzz...         ...888*88...                    ",
"                   ...zzzzzI...         ...8c888lU..                    ",
"                      ......X X         ...zzzzzz...                    ",
"                      ......            ...zzzzzz...                    ",
"                      .....g            ...zzzzzz...                    ",
"                                           4..L..                       ",
"                                           ......                       ",
"                                           ..Y...                       ",
"                                                                        ",
"                                                                        ",
"                                                                        "
};
