/* XPM */
static char *rcp0647232122132[] = {
/* columns rows colors chars-per-pixel */
"72 72 103 2 ",
"   c #479757",
".  c #46465E",
"X  c #479258",
"o  c #E28D00",
"O  c #46475E",
"+  c #D38E08",
"@  c #E18D01",
"#  c #479457",
"$  c #E18D00",
"%  c #D58708",
"&  c #D58E07",
"*  c #E08D01",
"=  c #FFE5B3",
"-  c #FFE7B6",
";  c #FDE1AA",
":  c #FFE7B5",
">  c #FBDB9D",
",  c #FEE3AD",
"<  c #DB8E04",
"1  c #D48E08",
"2  c #3A3A50",
"3  c #E7B051",
"4  c #F4B251",
"5  c #F1B251",
"6  c #F3B251",
"7  c #E6B051",
"8  c #47485E",
"9  c #E4B052",
"0  c #F9E4B3",
"q  c #F3B151",
"w  c #F1E1AF",
"e  c #FBE4B4",
"r  c #F3E1AF",
"t  c #3B3F50",
"y  c #FFE6B5",
"u  c #E18E00",
"i  c #F5E3B1",
"p  c #E8DDAA",
"a  c #EBDEAC",
"s  c #EEB051",
"d  c #EFE0AE",
"f  c #E8B151",
"g  c #F0B252",
"h  c #FEE7B6",
"j  c #FCE6B5",
"k  c #E28D01",
"l  c #FEE5B2",
"z  c #E18D02",
"x  c #F0B151",
"c  c #E6DCA9",
"v  c #DC8D05",
"b  c #F7E4B2",
"n  c #D78E07",
"m  c #F1B252",
"M  c #46485E",
"N  c #46475D",
"B  c #F2E1AF",
"V  c #D88E06",
"C  c #F3B351",
"Z  c #FC6653",
"A  c #F96753",
"S  c #FEE7B7",
"D  c #DE8D03",
"F  c #D48E09",
"G  c #DF8D03",
"H  c #EDB152",
"J  c #EAB151",
"K  c #EBB151",
"L  c #FAE4B3",
"P  c #E18E01",
"I  c #F9E3B2",
"U  c #DC8D04",
"Y  c #FEE6B5",
"T  c #E38F04",
"R  c #D89009",
"E  c #F3AF4B",
"W  c #4C495A",
"Q  c #E08C02",
"!  c #47465E",
"~  c #E49108",
"^  c #E38F05",
"/  c #E49109",
"(  c #E29004",
")  c #E28F04",
"_  c #F3B04E",
"`  c #3A3B51",
"'  c #48475D",
"]  c #544C56",
"[  c #D38F0C",
"{  c #E28F05",
"}  c #DD8E07",
"|  c #DD9007",
" . c #D3900C",
".. c #3B3B51",
"X. c #46465D",
"o. c #D68F0B",
"O. c #479657",
"+. c #DE8F06",
"@. c #EEE0AD",
"#. c #479157",
"$. c #479458",
"%. c #F3E3B0",
"&. c #479257",
/* pixels */
"                                                                                                                                                ",
"                                                                                                                                                ",
"                                                                                                                                                ",
"                                                                                                                                                ",
"                                                                                                                                                ",
"                                                                                                                                                ",
"                      . . .                         . . .                                                                                       ",
"                      . . .                         . . .                                                                                       ",
"                      . . . X                       . . .                                                                                       ",
"                . . . o o o . . .             O . . + o @ . . .                                                                                 ",
"                . . . o o o . . .             . . . o o o . . .                                                                                 ",
"                . . . o o o . . . #           . . . o o o . . .                                                                                 ",
"                . . . o o o o o o . . . . . . . . . o o o $ o o . . .                                                                           ",
"                . . . o o o o o o . . . . . . . . . o o o o o o . . .                                                                           ",
"                . . . o o o o o o . . . . . . . . . o o o o o o . . .                                                                           ",
"          . . . o o % o o o o o o o o o o o o o o o o o o o o o o o o . . .                                                                     ",
"          . . . o o o o o o o o o o o o o o o o o o o o o o o o o o o . . .                                                                     ",
"          . . . o o o & o $ $ $ o o o o o o $ o o o o o o o o o o o o . . .                                                                     ",
"          . . . * o o = - ; o o o o o o o o o : - > o o o $ o o o o o . . .                                                                     ",
"          . . . o o o - - - o o o o o o o o o - - - o o o $ $ o o o o . . .                                                                     ",
"          . . . @ o @ - - , o o o o o o o o @ - : - < o o o o o o o 1 . . .                                                                     ",
"          . . . o o o 2 2 2 3 4 5 o o o 4 4 5 2 2 2 6 4 4 4 4 7 o o o o o o . . .                   O . . 8 . O                                 ",
"          . . . o o o 2 2 2 4 4 4 o o o 4 4 4 2 2 2 4 4 4 4 4 4 o o o o o o . . .                   . . . . . .                                 ",
"          . . . o o o 2 2 2 4 4 4 o o o 4 4 4 2 2 2 4 4 4 4 4 9 o o o o o o . . .                   . . . . . .                                 ",
"          . . . 4 4 6 2 2 2 4 4 4 o o o 4 4 4 2 2 2 4 4 4 - - 0 4 4 q o o o . . .             8 . . w - - - - e O . .                           ",
"          . . . 4 4 4 2 2 2 4 4 4 o o o 4 4 4 2 2 2 4 6 4 - - - 4 4 4 o o o . . .             . . . - - r - - - . . .                           ",
"          . . . 4 4 4 2 2 2 4 4 6 o o o 4 4 4 t 2 2 4 4 4 - - y 4 4 4 u o o . . .             . . . i - - - p - . . .                           ",
"          . . . 4 4 4 4 4 4 4 4 6 6 4 4 4 4 4 4 4 6 4 4 4 - - - - - a 4 4 4 . . O . . . . . . - - - 4 4 4 s 4 3 d - - . . .                     ",
"          . . . 4 4 4 4 4 4 4 4 4 4 4 4 4 4 4 4 4 4 4 4 4 - - - - - - 4 4 4 . . . . . . . . . - - - 4 4 4 4 4 4 - - - . . .                     ",
"          . . O 4 4 4 4 4 4 4 4 4 4 4 f 4 4 4 4 4 4 6 4 4 - - - - - - g 4 4 8 . O . . . . . . - - - 4 4 4 4 4 4 - - - . . .                     ",
"          . . . 4 4 4 4 4 4 2 2 2 2 2 2 4 4 4 4 4 4 - - h - - - - - - - - j . . . k k k - - l 4 4 6 z k k 4 4 4 - - - . . .                     ",
"          . . . 4 4 4 4 4 4 2 2 2 2 2 2 4 4 4 4 4 4 - - - - - - - - - - - - . . . k k k - - - 4 4 4 k k k 4 4 4 - - - . . .                     ",
"          . . . 4 4 4 4 4 x 2 2 2 2 2 2 4 4 4 4 4 4 - - - - - - - - - - - - . . . k k k - - - 4 4 4 k k k 4 4 6 c - - . . .                     ",
"          . . . 4 4 4 4 . . O . . . . . . . . 4 4 4 - - - - - h - - - . . . @ k k k k k k k k k k k k k k k k v 4 4 x - - b . . .               ",
"          . . . 4 4 4 4 . . . . . . . . . . . 4 4 4 - - - - - - - - - . . . k k k k k k k k k k k k k k k k k n 4 4 4 - - - . . .               ",
"          . . . m 4 6 4 M . . . . . . N . . . 4 4 4 - - - - - - - B h . . . k k k k k k k k k k k k k k k k k V C 4 C - - - . . .               ",
"                . . . 4 4 4 4 Z Z Z A Z 4 4 4 4 4 4 - - S - - - . . . D k k k k k k k k k k k k k k k k k k k k k k F - - - . . .               ",
"                . . . 4 4 4 4 Z Z Z Z Z 4 4 4 4 4 4 - - - - - - . . . k k k k k k k k k k k k k k k k k k k k k G k k - - - . . .               ",
"                . . . 4 4 4 4 Z Z Z Z A 4 H C J 4 K - - - - L h . . . k k k k k k k k k k k k k k k k k k k k k k k k - - - . . .               ",
"                      . . O h - - - - - - - - - - - - - - O . . k k k k k k k @ k k k k k k k k k k k k k k k k k k k - - - . . O               ",
"                      . . . - - - - - - - - - - - - - - - . . . P k k k k k k k k k k k k o o o u k k k k k k k k k k - - - . . .               ",
"                      . . . - - - - - - - - - - - - - - I . . . U o o o o o o o o o $ $ $ $ o o o o o o k k k o o o o Y - - . . .               ",
"                            . . O . . . . . . . . . . . . T R T 1 k k k k k k k k k k k k k k k k k k k k k k k 4 4 4 . . .                     ",
"                            . . . . . . . . . . . . . . . T T k k k k k k k k k k k k k k k k k k k k k k k k k 4 4 4 . . .                     ",
"                            . . . . . . . . . . . . . . . T T k k k k k k k k k k k k k k k k k k k k k k k k k 4 4 4 . . .                     ",
"                            . . . 4 4 E C 4 4 4 4 5 T T T T T T k k k k k k k k k k k k . . . . . W k k k k k k 4 4 4 . . .                     ",
"                            . . . 4 4 4 4 4 4 4 4 4 T T T T T T k k k k k k k k k k k k . . . . . . k k k k k k 4 4 4 . . .                     ",
"                            . . . 4 4 4 4 4 4 4 4 4 T T T T T k k k k k k k k k Q k k n . . . . ! . k k k k k k 4 4 4 . . .                     ",
"                            . . . 4 4 4 4 4 4 ~ ^ / T ( T T T T . . . . . . . . . . . 8       2 2 2 . . W k k k 4 4 4 . . .                     ",
"                            . . . 4 4 4 4 4 4 T T T T ) T T T T . . . . . . . . . . . .       2 2 2 . . . k k k 4 4 4 . . .                     ",
"                            . . . 4 4 _ 4 4 4 T T T T ) T T T T . . . . . . . . . . . .       ` 2 2 . ' ] k k k 4 4 4 . . .                     ",
"                      . O . T T T . . . 4 4 4 T T T T T T . . .                               . . . T T T k T T . . . ( T [ 2 2 2               ",
"                      . . . T T T . . . 4 4 4 T T T T ) T . . .                               . . . T T T k T T . . . T T T 2 2 2               ",
"                      . . . T T T . . . 4 4 4 T { T ( T T . . .                               . . . T T T k T T . . . } |  ...2 2               ",
"                . N . - - - T T T . . . . . X.T T T T T T . . .                               . . O T T T T T T . . O - - c w - - ..2 2         ",
"                . . . - - - T T T . . . . . . T T T T T T . . .                               . . . T T T T T T . . . - - - - - - 2 2 2         ",
"                . . . - - - T T T . . O . . . o.T T T T T . . . O.                            . . O T T T T T +.. . . 0 - S - - - 2 2 2         ",
"          . . . - - - - - - . . .         O.  . . . - - i - - B . . .                   . . O - - 0 T T T . . .       2 2 2 - - - 2 2 2         ",
"          . . . - - - - - - . . .             . . . - - - - - - . . .                   . . . - - - T T T . . .       2 2 2 - - - 2 2 2         ",
"          . . . - - - - h @.. . .             . . . - - - - - - . . .                   . . . - - - T T T . . .       2 2 2 j - - ..2 2         ",
"                . . . . . .                         . . . - - - . . O             . . . - - - - - - . . . #.  $.            2 2 2               ",
"                . . . . . .                         . . . - - - . . .             . . . - - - - - - . . .                   2 2 2 O.            ",
"                . . . . . .                         . . . - - - . . .             X.. . - - - - - %.. . . &.                2 2 2 #.            ",
"                                                        O.. . .                         . . . . . .                                             ",
"                                                          . . .                         . . . . . .                                             ",
"                                                          . . .                         . . . . . .                                             ",
"                                                                                                                                                ",
"                                                                                                                                                ",
"                                                                                                                                                ",
"                                                                                                                                                ",
"                                                                                                                                                ",
"                                                                                                                                                "
};
