/* XPM */
static char *rcp06341032286783[] = {
/* columns rows colors chars-per-pixel */
"72 72 63 1 ",
"  c #479757",
". c #46465E",
"X c #479657",
"o c #479658",
"O c #479457",
"+ c #9BC246",
"@ c #99C147",
"# c #46475E",
"$ c #98C147",
"% c #95C048",
"& c #74B453",
"* c #63A650",
"= c #73B453",
"- c #74B454",
"; c #64A750",
": c #72B254",
"> c #70B156",
", c #72B255",
"< c #65A850",
"1 c #65A750",
"2 c #64A650",
"3 c #46465D",
"4 c #73B452",
"5 c #73B353",
"6 c #474A5E",
"7 c #489857",
"8 c #4A9A57",
"9 c #489757",
"0 c #4A9957",
"q c #3A3A50",
"w c #3B3B50",
"e c #4D7DCE",
"r c #4280DD",
"t c #477ED5",
"y c #45455D",
"u c #4786C4",
"i c #447FDA",
"p c #4380DC",
"a c #4480DB",
"s c #4280DC",
"d c #5393D7",
"f c #4A95E1",
"g c #5194DA",
"h c #4D94DD",
"j c #5593D5",
"k c #4C7DCF",
"l c #4D94DE",
"z c #5693D4",
"x c #5094DA",
"c c #529760",
"v c #487ED5",
"b c #467FD7",
"n c #B35E3F",
"m c #B35E40",
"M c #AF5F45",
"N c #B15F41",
"B c #AD6047",
"V c #B25E40",
"C c #B05F43",
"Z c #C47C5C",
"A c #C37C5D",
"S c #C47C5D",
"D c #5C4A44",
/* pixels */
"                                                                        ",
"                                                                        ",
"                                                                        ",
"                        .........      .........X                       ",
"                        ......... o    .........                        ",
"                       O.........      ......... X                      ",
"                    X...++++++++@#.....++++++++@...                     ",
"                     ...+++++++++......+++++++++...                     ",
"                     ...++$%+$++$......+++++++++...                     ",
"                  #..+++&&&&&&&&&***+++&&&&&&&&&&&=..#  X               ",
"                  ...+++&&&&&&&&&***+++&&&&&&&&&&&&...                  ",
"                  #..++$&&&&--&&&**;@+$&&&-&-----&&...X                 ",
"               ...&&:>-,------&&&&&&<1*&-----------&&&..#               ",
"               ...&&-----------&&&&&***&-----------&&&...               ",
"               ...---------------&&&***------------&--...               ",
"               ...-------&-------&&&&&&-------&-------...               ",
"               ...------&&-------&&&&&&-------&-------...               ",
"               ...---------------&&&------------------...               ",
"               ...---**;***------&&----------*****1---...               ",
"               ...---******------&&----------******---...               ",
"               ...---******------------------******---...               ",
"            ...******------------------------------*****2...            ",
"            .#.******-------------&----------------******...            ",
"            ...******------------------------------;*****...            ",
"            ..3---&-------&&-------------------------&&&&...            ",
"            ...&&&&&&&&&------------------------4&&5-&&&&...            ",
"            ...&&--&&&&&&&&-----------------&&&&&&&&-&&&&...            ",
"            ...&&-----------------------------------&&&&&...            ",
"            ...&&&---------------&&&----------------&&&&&...            ",
"            ...&&-----------------------------------&-&&&...            ",
"              X...**;------------------------------***...  X            ",
"               ...;**------------------------------***...               ",
"               6..***------------------------------***...               ",
"               7 8...********;------------********;...                  ",
"                  ...****;****------------*********...                  ",
"                  ...2********------------*********#..                  ",
"                    9......*****************<......0 9                  ",
"                     ......;*****************......                     ",
"                X    ......1****************;..#...    X                ",
"                  qqwerrrrt..................rrrrrr...                  ",
"                  qqqrrrrrr.y................rrrrrr...                  ",
"                  wqqrrrrrr.................yrrrrru...                  ",
"               qqqrirrrrrrrrrrrrrrrrrrrrrrrrrrrrrrrrrp...               ",
"               qqqrrrrrrrrrrrrrrrrrrrrrrrrrrrrrrrrrrrr...               ",
"               qqqarrrrrrrrrrrrrrrrrrrrrrrrrrrrrsrrrrr...               ",
"               qqqdffrrrgffffffffffffffffffffffhprrrrr...               ",
"               qqqfffrrrffffffffffffffffffffffffrrrrrr...               ",
"               qqqjfgrskffffffffffffffffffffffffrrrrrr...               ",
"            ...&&&&&&qqqjfffffffffffffffffffffffqqqqqq&&&...            ",
"            ...&&&&&&qqqlfffffffffffffffffffffffqqqqqq&&&...            ",
"            ...&&&&&&qqqzffffffffffffffffffffffxqqqqqq&&&...            ",
"            ...&&&cccqqq...errrrrrrrrrrrrrrrv...qqqccc&&&...            ",
"            ...&&&cccqqq...rrrrrrrrrrrrrrrrrr...qqqccc&&&...            ",
"            ...&&&cccqqq...brrrrpprrkrrrrrrrr...qqqccc&&&...            ",
"               ...qqqqqqnnn..................mnnqqqqqq...               ",
"               ...qqqqqqnnn..................nnMqqqqqq...               ",
"               ...qqqqqqnnn..................nnmqqqqqq...               ",
"                     qqqnnnnnnnnnnnnnnnnnnnnnnnnqqq                     ",
"                     qqqnnnnnnnnnnnnnnnnnnnnnnnNqqq                     ",
"                     qqqnnnnnBVnnnnnnnnnnnnnnnnCqqq                     ",
"                     qqqZZZZZZ............ZZZZZZqqq                     ",
"                     qqqZZZZZZ............ZZZZZZqqq                     ",
"                     qqqAZZZZS............ZZZZZAqqq                     ",
"                     qqqDDDDDDqqq      qqqDDDDDDqqq                     ",
"                     qqqDDDDDDqqq      qqqDDDDDDqqq                     ",
"                     qqqDDDDDDqqq      qqqDDDDDDqqq                     ",
"                        qqqqqq            qqqqqq                        ",
"                        qqqqqq            qqqqqq                        ",
"                        qqqqqq            qqqqqq                        ",
"                                                                        ",
"                                                                        ",
"                                                                        "
};
